<?xml version="1.0" encoding="UTF-8"?>
<!DOCTYPE svg PUBLIC "-//W3C//DTD SVG 1.1//EN" "http://www.w3.org/Graphics/SVG/1.1/DTD/svg11.dtd">
<!-- Creator: CorelDRAW 2020 (64-Bit) -->
<svg xmlns="http://www.w3.org/2000/svg" xml:space="preserve" width="278px" height="278px" version="1.1" style="shape-rendering:geometricPrecision; text-rendering:geometricPrecision; image-rendering:optimizeQuality; fill-rule:evenodd; clip-rule:evenodd"
viewBox="0 0 9.27 9.27"
 xmlns:xlink="http://www.w3.org/1999/xlink"
 xmlns:xodm="http://www.corel.com/coreldraw/odm/2003">
 <defs>
  <style type="text/css">
   <![CDATA[
    .fil0 {fill:#007084;fill-rule:nonzero}
    .fil1 {fill:#F0CDA1;fill-rule:nonzero}
   ]]>
  </style>
 </defs>
 <g id="Capa_x0020_1">
  <metadata id="CorelCorpID_0Corel-Layer"/>
  <path class="fil0" d="M7.12 6.2l-4.97 0c-0.12,0 -0.21,0.08 -0.21,0.17l0 0.01c0,0.09 0.09,0.17 0.21,0.17l4.97 0c0.12,0 0.22,-0.08 0.22,-0.17l0 -0.01c0,-0.09 -0.1,-0.17 -0.22,-0.17z"/>
  <path class="fil0" d="M6.33 3.43l-0.35 0c-0.11,0 -0.2,0.09 -0.2,0.2l0 1.49c0,0.11 0.09,0.2 0.2,0.2l0.35 0c0.11,0 0.2,-0.09 0.2,-0.2l0 -1.49c0,-0.11 -0.09,-0.2 -0.2,-0.2z"/>
  <path class="fil0" d="M3.29 3.43l-0.34 0c-0.12,0 -0.21,0.09 -0.21,0.2l0 1.49c0,0.11 0.09,0.2 0.21,0.2l0.34 0c0.11,0 0.2,-0.09 0.2,-0.2l0 -1.49c0,-0.11 -0.09,-0.2 -0.2,-0.2z"/>
  <path class="fil0" d="M4.96 3.43l-0.65 0c-0.21,0 -0.38,0.09 -0.38,0.2l0 1.49c0,0.11 0.17,0.2 0.38,0.2l0.65 0c0.21,0 0.38,-0.09 0.38,-0.2l0 -1.49c0,-0.11 -0.17,-0.2 -0.38,-0.2z"/>
  <path class="fil0" d="M7.22 2.84l-2.54 -0.99c-0.03,-0.01 -0.06,-0.01 -0.09,0l-2.54 0.99c-0.07,0.02 -0.11,0.09 -0.1,0.16 0.01,0.06 0.07,0.11 0.15,0.11l5.08 0c0.07,0 0.14,-0.05 0.15,-0.11 0.01,-0.07 -0.04,-0.14 -0.11,-0.16z"/>
  <path class="fil0" d="M7.07 5.77l0 0.01c0,0.1 -0.09,0.17 -0.21,0.17l-4.44 0c-0.12,0 -0.22,-0.07 -0.22,-0.17l0 -0.01c0,-0.09 0.1,-0.17 0.22,-0.17l4.44 0c0.12,0 0.21,0.08 0.21,0.17z"/>
  <path class="fil1" d="M4.64 0c0.62,0 1.22,0.13 1.77,0.35 0.57,0.24 1.08,0.58 1.51,1.01 0.42,0.42 0.77,0.94 1,1.5 0.23,0.55 0.35,1.15 0.35,1.78 0,0.62 -0.12,1.22 -0.35,1.77 -0.23,0.57 -0.58,1.08 -1,1.51 -0.43,0.42 -0.94,0.77 -1.51,1 -0.55,0.23 -1.15,0.35 -1.77,0.35 -0.63,0 -1.23,-0.12 -1.78,-0.35 -0.56,-0.23 -1.08,-0.58 -1.5,-1 -0.43,-0.43 -0.77,-0.94 -1.01,-1.51 -0.22,-0.55 -0.35,-1.15 -0.35,-1.77 0,-0.63 0.13,-1.23 0.35,-1.78 0.24,-0.56 0.58,-1.08 1.01,-1.5 0.42,-0.43 0.94,-0.77 1.5,-1.01 0.55,-0.22 1.15,-0.35 1.78,-0.35zm1.54 0.9c-0.47,-0.2 -0.99,-0.31 -1.54,-0.31 -0.55,0 -1.08,0.11 -1.55,0.31 -0.49,0.2 -0.94,0.5 -1.31,0.88 -0.38,0.37 -0.68,0.82 -0.88,1.31 -0.2,0.47 -0.31,1 -0.31,1.55 0,0.55 0.11,1.07 0.31,1.54 0.2,0.5 0.5,0.94 0.88,1.32 0.37,0.37 0.82,0.67 1.31,0.88 0.47,0.19 1,0.3 1.55,0.3 0.55,0 1.07,-0.11 1.54,-0.3 0.5,-0.21 0.94,-0.51 1.32,-0.88 0.37,-0.38 0.67,-0.82 0.88,-1.32 0.19,-0.47 0.3,-0.99 0.3,-1.54 0,-0.55 -0.11,-1.08 -0.3,-1.55 -0.21,-0.49 -0.51,-0.94 -0.88,-1.31 -0.38,-0.38 -0.82,-0.68 -1.32,-0.88z"/>
 </g>
</svg>
