<?xml version="1.0" encoding="UTF-8"?>
<!DOCTYPE svg PUBLIC "-//W3C//DTD SVG 1.1//EN" "http://www.w3.org/Graphics/SVG/1.1/DTD/svg11.dtd">
<!-- Creator: CorelDRAW 2020 (64-Bit) -->
<svg xmlns="http://www.w3.org/2000/svg" xml:space="preserve" width="278px" height="278px" version="1.1" style="shape-rendering:geometricPrecision; text-rendering:geometricPrecision; image-rendering:optimizeQuality; fill-rule:evenodd; clip-rule:evenodd"
viewBox="0 0 7.36 7.36"
 xmlns:xlink="http://www.w3.org/1999/xlink"
 xmlns:xodm="http://www.corel.com/coreldraw/odm/2003">
 <defs>
  <style type="text/css">
   <![CDATA[
    .fil1 {fill:#107082}
    .fil0 {fill:#107082;fill-rule:nonzero}
    .fil2 {fill:#F0CDA1;fill-rule:nonzero}
   ]]>
  </style>
 </defs>
 <g id="Capa_x0020_1">
  <metadata id="CorelCorpID_0Corel-Layer"/>
  <path class="fil0" d="M3.14 3.11l-0.27 0 0 0.23c0.07,0 0.14,0.01 0.21,0.03 0.04,-0.08 0.06,-0.17 0.06,-0.26z"/>
  <path class="fil0" d="M2.68 3.54c0.04,0.05 0.08,0.09 0.11,0.11l0 -0.24c-0.06,0.01 -0.12,0.01 -0.18,0.02 0.02,0.04 0.05,0.07 0.07,0.11z"/>
  <path class="fil0" d="M3.08 2.79c-0.07,0.01 -0.14,0.02 -0.21,0.02l0 0.23 0.27 0c0,-0.08 -0.02,-0.17 -0.06,-0.25z"/>
  <path class="fil0" d="M2.98 3.53c0.02,-0.03 0.05,-0.06 0.07,-0.1 -0.06,-0.01 -0.12,-0.01 -0.18,-0.02l0 0.24c0.03,-0.02 0.07,-0.06 0.11,-0.12z"/>
  <path class="fil0" d="M2.54 3.45c-0.05,0.01 -0.1,0.02 -0.15,0.04 0.09,0.09 0.19,0.15 0.31,0.18 -0.02,-0.03 -0.05,-0.06 -0.07,-0.09 -0.04,-0.04 -0.07,-0.09 -0.09,-0.13z"/>
  <path class="fil0" d="M3.03 3.58c-0.02,0.03 -0.05,0.06 -0.07,0.09 0.12,-0.03 0.22,-0.09 0.31,-0.18 -0.05,-0.02 -0.1,-0.03 -0.15,-0.04 -0.02,0.04 -0.05,0.09 -0.09,0.13z"/>
  <path class="fil0" d="M2.98 2.62c-0.04,-0.05 -0.08,-0.09 -0.11,-0.12l0 0.24c0.06,0 0.12,-0.01 0.18,-0.02 -0.02,-0.03 -0.05,-0.07 -0.07,-0.1z"/>
  <path class="fil0" d="M3.16 3.37c0,0 -0.01,0.01 -0.01,0.01 0.06,0.02 0.11,0.03 0.16,0.05 0.07,-0.09 0.11,-0.2 0.12,-0.32l-0.22 0c0,0.09 -0.02,0.18 -0.05,0.26z"/>
  <path class="fil0" d="M3.16 2.79c0.03,0.08 0.05,0.17 0.05,0.25l0.22 0c-0.01,-0.12 -0.05,-0.23 -0.12,-0.32 -0.05,0.02 -0.1,0.04 -0.16,0.05 0,0.01 0.01,0.01 0.01,0.02z"/>
  <path class="fil0" d="M3.12 2.71c0.05,-0.01 0.1,-0.03 0.14,-0.05 -0.08,-0.08 -0.18,-0.14 -0.3,-0.17 0.02,0.03 0.05,0.05 0.07,0.09 0.04,0.04 0.07,0.08 0.09,0.13z"/>
  <path class="fil0" d="M2.51 3.38c0,0 -0.01,-0.01 -0.01,-0.01 -0.03,-0.08 -0.05,-0.17 -0.05,-0.26l-0.22 0c0.01,0.12 0.05,0.23 0.12,0.32 0.05,-0.02 0.1,-0.03 0.16,-0.05z"/>
  <path class="fil0" d="M3.69 4.58c0,0.03 -0.03,0.06 -0.06,0.06l-1.6 0c-0.03,0 -0.06,-0.03 -0.06,-0.06l0 -0.06c0,-0.03 0.03,-0.06 0.06,-0.06l1.6 0c0.03,0 0.06,0.03 0.06,0.06l0 0.06zm0 0.26c0,0.03 -0.03,0.05 -0.06,0.05l-1.6 0c-0.03,0 -0.06,-0.02 -0.06,-0.05l0 -0.04c0,-0.03 0.03,-0.05 0.06,-0.05l1.6 0c0.03,0 0.06,0.02 0.06,0.05l0 0.04zm-1.35 -2.25c0.13,-0.13 0.3,-0.21 0.49,-0.21 0.19,0 0.36,0.08 0.49,0.21 0.13,0.13 0.21,0.3 0.21,0.49 0,0.18 -0.08,0.36 -0.21,0.49 -0.13,0.13 -0.3,0.2 -0.49,0.2 -0.19,0 -0.36,-0.07 -0.49,-0.2 -0.13,-0.13 -0.2,-0.31 -0.2,-0.49 0,-0.19 0.07,-0.36 0.2,-0.49zm1.34 -0.62l-2 0c-0.06,0 -0.12,0.05 -0.12,0.12l0 3.13c0,0.07 0.06,0.12 0.12,0.12l2 0c0.23,0 0.42,-0.19 0.42,-0.43l0 -2.52c0,-0.23 -0.19,-0.42 -0.42,-0.42z"/>
  <path class="fil0" d="M2.5 2.79c0.01,-0.01 0.01,-0.01 0.01,-0.02 -0.06,-0.01 -0.11,-0.03 -0.16,-0.05 -0.07,0.09 -0.11,0.2 -0.12,0.32l0.22 0c0,-0.08 0.02,-0.17 0.05,-0.25z"/>
  <path class="fil0" d="M2.63 2.58c0.02,-0.04 0.05,-0.06 0.07,-0.09 -0.12,0.03 -0.22,0.09 -0.3,0.17 0.04,0.02 0.09,0.04 0.14,0.05 0.03,-0.05 0.05,-0.09 0.09,-0.13z"/>
  <path class="fil0" d="M2.58 3.37c0.07,-0.02 0.14,-0.03 0.21,-0.03l0 -0.23 -0.27 0c0,0.09 0.02,0.18 0.06,0.26z"/>
  <path class="fil0" d="M2.61 2.72c0.06,0.01 0.12,0.02 0.18,0.02l0 -0.24c-0.03,0.03 -0.07,0.07 -0.11,0.12 -0.02,0.04 -0.05,0.07 -0.07,0.1z"/>
  <path class="fil0" d="M2.52 3.04l0.27 0 0 -0.23c-0.07,0 -0.14,-0.01 -0.21,-0.02 -0.04,0.08 -0.06,0.17 -0.06,0.25z"/>
  <g id="_2442627806896">
   <path class="fil0" d="M4.72 4.58c0,0.05 0.03,0.09 0.08,0.09l0.32 0c0.05,0 0.08,-0.04 0.08,-0.09 -0.02,-0.14 -0.09,-0.21 -0.18,-0.24 0.05,-0.02 0.08,-0.07 0.08,-0.13 0,-0.07 -0.06,-0.13 -0.14,-0.13 -0.07,-0.01 -0.14,0.06 -0.14,0.14 0,0.05 0.03,0.1 0.08,0.12 -0.09,0.03 -0.16,0.1 -0.18,0.24z"/>
   <path class="fil0" d="M5.7 4.29l0 -0.1c0,-0.01 -0.01,-0.02 -0.02,-0.02l-0.32 0c-0.03,0 -0.05,0.03 -0.05,0.05l0 0.04c0,0.02 0.02,0.05 0.05,0.05l0.32 0c0.01,0 0.02,-0.01 0.02,-0.02z"/>
   <path class="fil0" d="M6 4.17l-0.18 0c-0.01,0 -0.02,0.01 -0.02,0.02l0 0.1c0,0.01 0.01,0.02 0.02,0.02l0.18 0c0.03,0 0.05,-0.03 0.05,-0.05l0 -0.04c0,-0.02 -0.02,-0.05 -0.05,-0.05z"/>
   <path class="fil0" d="M6 4.4l-0.32 0c-0.01,0 -0.02,0 -0.02,0.01l0 0.1c0,0.01 0.01,0.02 0.02,0.02l0.32 0c0.03,0 0.05,-0.02 0.05,-0.05l0 -0.03c0,-0.03 -0.02,-0.05 -0.05,-0.05z"/>
   <path class="fil0" d="M5.54 4.4l-0.18 0c-0.03,0 -0.05,0.02 -0.05,0.05l0 0.03c0,0.03 0.02,0.05 0.05,0.05l0.18 0c0.01,0 0.02,-0.01 0.02,-0.02l0 -0.1c0,-0.01 -0.01,-0.01 -0.02,-0.01z"/>
   <path class="fil0" d="M4.76 3.99l1.29 0c0.02,0 0.04,-0.01 0.04,-0.04 0,-0.02 -0.02,-0.04 -0.04,-0.04l-1.29 0c-0.03,0 -0.05,0.02 -0.05,0.04 0,0.03 0.02,0.04 0.05,0.04z"/>
   <path class="fil0" d="M6.06 4.83l-0.37 0.37 0 -0.37 0.37 0zm-0.51 0.49l-0.95 0c-0.02,0 -0.03,-0.01 -0.03,-0.03l0 -2.23c0,-0.01 0.01,-0.03 0.03,-0.03l1.55 0c0.02,0 0.03,0.02 0.03,0.03l0 1.62 -0.51 0c-0.07,0 -0.12,0.06 -0.12,0.13l0 0.51zm0.78 -2.26c0,-0.1 -0.08,-0.17 -0.18,-0.17l-1.55 0c-0.1,0 -0.18,0.07 -0.18,0.17l0 2.23c0,0.1 0.08,0.17 0.18,0.17l1.02 0c0.02,0 0.04,0 0.05,-0.02l0.01 0.01 0.63 -0.63 -0.01 -0.01c0.02,-0.01 0.03,-0.03 0.03,-0.05l0 -1.7z"/>
   <path class="fil0" d="M5.32 4.77l-0.57 0c-0.02,0 -0.04,0.01 -0.04,0.03l0 0.03c0,0.02 0.02,0.04 0.04,0.04l0.57 0c0.02,0 0.03,-0.02 0.03,-0.04l0 -0.03c0,-0.02 -0.01,-0.03 -0.03,-0.03z"/>
   <path class="fil0" d="M5.32 4.93l-0.57 0c-0.02,0 -0.04,0.02 -0.04,0.04l0 0.03c0,0.02 0.02,0.03 0.04,0.03l0.57 0c0.02,0 0.03,-0.01 0.03,-0.03l0 -0.03c0,-0.02 -0.01,-0.04 -0.03,-0.04z"/>
   <path class="fil0" d="M5.32 5.1l-0.57 0c-0.02,0 -0.04,0.01 -0.04,0.03l0 0.04c0,0.02 0.02,0.03 0.04,0.03l0.57 0c0.02,0 0.03,-0.01 0.03,-0.03l0 -0.04c0,-0.02 -0.01,-0.03 -0.03,-0.03z"/>
   <path class="fil1" d="M5.17 3.16c-0.03,0 -0.04,0.01 -0.04,0.02l-0.09 0.11 -0.11 0c-0.02,0 -0.03,0.01 -0.03,0.02l-0.01 0.04c0,0.01 0,0.01 0.01,0.01l0.06 0.03 -0.03 0.03c-0.01,0.02 -0.02,0.04 -0.02,0.08l0 0.31c0,0.01 0.01,0.02 0.02,0.02l0.17 0c0.01,0 0.02,-0.01 0.02,-0.02l0 -0.04 0.61 0 0 0.04c0,0.01 0.01,0.02 0.02,0.02l0.17 0c0.01,0 0.02,-0.01 0.02,-0.02l0 -0.31c0,-0.04 0,-0.06 -0.02,-0.08l-0.02 -0.03 0.06 -0.03c0,0 0.01,0 0,-0.01l-0.01 -0.04c0,-0.01 -0.01,-0.02 -0.02,-0.02l-0.11 0 -0.1 -0.11c0,-0.01 -0.01,-0.02 -0.03,-0.02 -0.21,-0.02 -0.32,-0.02 -0.52,0l0 0zm-0.19 0.29l0.15 0.01c0.02,0.01 0.04,0.02 0.04,0.04l0 0.03c0,0 -0.01,0.01 -0.01,0.01l-0.15 -0.01c-0.02,0 -0.04,-0.02 -0.04,-0.04l0 -0.03c0,-0.01 0.01,-0.02 0.01,-0.01l0 0zm0.89 0l-0.15 0.01c-0.02,0.01 -0.04,0.02 -0.04,0.04l0 0.03c0,0 0.01,0.01 0.01,0.01l0.15 -0.01c0.03,0 0.04,-0.02 0.04,-0.04l0 -0.03c0,-0.01 0,-0.02 -0.01,-0.01l0 0zm-0.81 -0.08c-0.01,0 -0.01,-0.01 -0.01,-0.01l0.11 -0.14c0.01,-0.01 0.01,-0.01 0.02,-0.01 0.2,-0.02 0.29,-0.02 0.49,0 0.01,0 0.02,0 0.02,0.01l0.11 0.14c0.01,0 0.01,0.01 0,0.01 -0.29,-0.02 -0.46,-0.02 -0.74,0l0 0z"/>
  </g>
  <path class="fil2" d="M3.68 0c0.5,0 0.97,0.1 1.41,0.28 0.45,0.19 0.86,0.46 1.19,0.8 0.34,0.34 0.62,0.74 0.8,1.19 0.18,0.44 0.28,0.91 0.28,1.41 0,0.5 -0.1,0.97 -0.28,1.41 -0.18,0.45 -0.46,0.86 -0.8,1.19 -0.33,0.34 -0.74,0.62 -1.19,0.8 -0.44,0.18 -0.91,0.28 -1.41,0.28 -0.5,0 -0.97,-0.1 -1.41,-0.28 -0.45,-0.18 -0.85,-0.46 -1.19,-0.8 -0.34,-0.33 -0.61,-0.74 -0.8,-1.19 -0.18,-0.44 -0.28,-0.91 -0.28,-1.41 0,-0.5 0.1,-0.97 0.28,-1.41 0.19,-0.45 0.46,-0.85 0.8,-1.19 0.34,-0.34 0.74,-0.61 1.19,-0.8 0.44,-0.18 0.91,-0.28 1.41,-0.28zm1.23 0.71c-0.38,-0.15 -0.79,-0.24 -1.23,-0.24 -0.44,0 -0.85,0.09 -1.23,0.24 -0.39,0.16 -0.74,0.4 -1.04,0.7 -0.3,0.3 -0.54,0.65 -0.7,1.04 -0.15,0.38 -0.24,0.79 -0.24,1.23 0,0.44 0.09,0.85 0.24,1.23 0.16,0.39 0.4,0.74 0.7,1.04 0.3,0.3 0.65,0.54 1.04,0.7 0.38,0.16 0.79,0.24 1.23,0.24 0.44,0 0.85,-0.08 1.23,-0.24 0.39,-0.16 0.74,-0.4 1.04,-0.7 0.3,-0.3 0.54,-0.65 0.7,-1.04 0.16,-0.38 0.24,-0.79 0.24,-1.23 0,-0.44 -0.08,-0.85 -0.24,-1.23 -0.16,-0.39 -0.4,-0.74 -0.7,-1.04 -0.3,-0.3 -0.65,-0.54 -1.04,-0.7z"/>
 </g>
</svg>
