<?xml version="1.0" encoding="UTF-8"?>
<!DOCTYPE svg PUBLIC "-//W3C//DTD SVG 1.1//EN" "http://www.w3.org/Graphics/SVG/1.1/DTD/svg11.dtd">
<!-- Creator: CorelDRAW 2020 (64-Bit) -->
<svg xmlns="http://www.w3.org/2000/svg" xml:space="preserve" width="278px" height="278px" version="1.1" style="shape-rendering:geometricPrecision; text-rendering:geometricPrecision; image-rendering:optimizeQuality; fill-rule:evenodd; clip-rule:evenodd"
viewBox="0 0 15.54 15.54"
 xmlns:xlink="http://www.w3.org/1999/xlink"
 xmlns:xodm="http://www.corel.com/coreldraw/odm/2003">
 <defs>
  <style type="text/css">
   <![CDATA[
    .fil1 {fill:#007084;fill-rule:nonzero}
    .fil0 {fill:#F0CDA1;fill-rule:nonzero}
   ]]>
  </style>
 </defs>
 <g id="Capa_x0020_1">
  <metadata id="CorelCorpID_0Corel-Layer"/>
  <path class="fil0" d="M7.77 0c1.05,0 2.05,0.21 2.97,0.59 0.95,0.39 1.81,0.97 2.53,1.69 0.71,0.71 1.29,1.57 1.68,2.52 0.38,0.92 0.59,1.92 0.59,2.97 0,1.05 -0.21,2.05 -0.59,2.97 -0.39,0.95 -0.97,1.81 -1.68,2.53 -0.72,0.71 -1.58,1.29 -2.53,1.68 -0.92,0.38 -1.92,0.59 -2.97,0.59 -1.05,0 -2.05,-0.21 -2.97,-0.59 -0.95,-0.39 -1.81,-0.97 -2.52,-1.68 -0.72,-0.72 -1.3,-1.58 -1.69,-2.53 -0.38,-0.92 -0.59,-1.92 -0.59,-2.97 0,-1.05 0.21,-2.05 0.59,-2.97 0.39,-0.95 0.97,-1.81 1.69,-2.52 0.71,-0.72 1.57,-1.3 2.52,-1.69 0.92,-0.38 1.92,-0.59 2.97,-0.59zm2.59 1.5c-0.79,-0.33 -1.67,-0.51 -2.59,-0.51 -0.92,0 -1.8,0.18 -2.59,0.51 -0.83,0.35 -1.58,0.85 -2.2,1.48 -0.63,0.62 -1.13,1.37 -1.48,2.2 -0.33,0.79 -0.51,1.67 -0.51,2.59 0,0.92 0.18,1.8 0.51,2.59 0.35,0.83 0.85,1.58 1.48,2.2 0.62,0.63 1.37,1.13 2.2,1.48 0.79,0.33 1.67,0.51 2.59,0.51 0.92,0 1.8,-0.18 2.59,-0.51 0.83,-0.35 1.58,-0.85 2.2,-1.48 0.63,-0.62 1.13,-1.37 1.48,-2.2 0.33,-0.79 0.51,-1.67 0.51,-2.59 0,-0.92 -0.18,-1.8 -0.51,-2.59 -0.35,-0.83 -0.85,-1.58 -1.48,-2.2 -0.62,-0.63 -1.37,-1.13 -2.2,-1.48z"/>
  <g id="_2442448109552">
   <path class="fil1" d="M7.2 9.2l0.57 1.47 0.57 -1.45 -0.31 -1.03c0.03,-0.02 0.05,-0.06 0.05,-0.1l0 -0.23c0,-0.08 -0.06,-0.14 -0.14,-0.14l-0.35 0c-0.08,0 -0.14,0.06 -0.14,0.14l0 0.23c0,0.05 0.02,0.09 0.06,0.11l-0.31 1z"/>
   <path class="fil1" d="M9.25 7.7l-1.48 3.79 -1.48 -3.79c-1.49,0.59 -2.23,2.04 -2.53,3.82l8.02 0c-0.3,-1.78 -1.04,-3.23 -2.53,-3.82z"/>
   <path class="fil1" d="M7.79 2.97c-1.21,0 -2.19,0.98 -2.19,2.19 0,1.2 0.98,2.18 2.19,2.18 1.2,0 2.18,-0.98 2.18,-2.18 0,-1.21 -0.98,-2.19 -2.18,-2.19zm0 4c-0.97,-0.01 -1.75,-0.76 -1.81,-1.71 0.42,-0.36 0.71,-0.84 0.81,-1.38 0.5,0.57 1.27,0.93 2.14,0.93 0.21,0 0.42,-0.03 0.62,-0.07 0.03,0.14 0.05,0.27 0.05,0.42 -0.01,1 -0.81,1.8 -1.81,1.81z"/>
  </g>
 </g>
</svg>
