<?xml version="1.0" encoding="UTF-8" standalone="no"?>
<!-- Creator: CorelDRAW 2020 (64-Bit) -->

<svg
   xmlns:dc="http://purl.org/dc/elements/1.1/"
   xmlns:cc="http://creativecommons.org/ns#"
   xmlns:rdf="http://www.w3.org/1999/02/22-rdf-syntax-ns#"
   xmlns:svg="http://www.w3.org/2000/svg"
   xmlns="http://www.w3.org/2000/svg"
   xmlns:sodipodi="http://sodipodi.sourceforge.net/DTD/sodipodi-0.dtd"
   xmlns:inkscape="http://www.inkscape.org/namespaces/inkscape"
   xml:space="preserve"
   width="500px"
   height="296px"
   version="1.1"
   style="shape-rendering:geometricPrecision; text-rendering:geometricPrecision; image-rendering:optimizeQuality; fill-rule:evenodd; clip-rule:evenodd"
   viewBox="0 0 139.6 82.69"
   id="svg21"
   sodipodi:docname="LLLogoTrazColor.svg"
   inkscape:version="0.92.3 (2405546, 2018-03-11)"><metadata
   id="metadata25"><rdf:RDF><cc:Work
       rdf:about=""><dc:format>image/svg+xml</dc:format><dc:type
         rdf:resource="http://purl.org/dc/dcmitype/StillImage" /><dc:title></dc:title></cc:Work></rdf:RDF></metadata><sodipodi:namedview
   pagecolor="#ffffff"
   bordercolor="#666666"
   borderopacity="1"
   objecttolerance="10"
   gridtolerance="10"
   guidetolerance="10"
   inkscape:pageopacity="0"
   inkscape:pageshadow="2"
   inkscape:window-width="1536"
   inkscape:window-height="801"
   id="namedview23"
   showgrid="false"
   inkscape:zoom="0.698"
   inkscape:cx="250"
   inkscape:cy="148.71633"
   inkscape:window-x="-8"
   inkscape:window-y="-8"
   inkscape:window-maximized="1"
   inkscape:current-layer="svg21" />
 <defs
   id="defs4">
  <style
   type="text/css"
   id="style2">
   <![CDATA[
    .str0 {stroke:#2B2A29;stroke-width:0.12;stroke-miterlimit:22.9256}
    .fil0 {fill:none}
    .fil1 {fill:#E0F0F3}
    .fil2 {fill:#E0F0F3}
    .fil3 {fill:#2B2A29;fill-rule:nonzero}
   ]]>
  </style>
 </defs>
 <g
   id="Capa_x0020_1"
   style="stroke:none">
  <metadata
   id="CorelCorpID_0Corel-Layer" />
  <rect
   class="fil0 str0"
   x="0.06"
   y="0.06"
   width="139.49"
   height="82.58"
   id="rect7"
   style="fill:#107082;fill-opacity:1;stroke:none" />
  <rect
   class="fil1"
   x="13.96"
   y="22.78"
   width="112"
   height="1.75"
   id="rect9"
   style="stroke:none" />
  <rect
   class="fil2"
   x="13.96"
   y="46.13"
   width="112"
   height="1.75"
   id="rect11"
   style="stroke:none" />
  <path
   class="fil3"
   d="M23.72 40.08l0.08 0c0.09,0 0.16,-0.03 0.23,-0.09 0.07,-0.06 0.13,-0.13 0.18,-0.22 0.05,-0.09 0.08,-0.18 0.11,-0.28 0.03,-0.1 0.04,-0.2 0.04,-0.28l0 -8.89c0,-0.07 -0.01,-0.16 -0.04,-0.26 -0.03,-0.1 -0.06,-0.19 -0.11,-0.28 -0.05,-0.09 -0.11,-0.17 -0.18,-0.23 -0.07,-0.06 -0.14,-0.09 -0.23,-0.09l-0.08 0 0 -0.16 2.39 0 0 0.16 -0.09 0c-0.09,0 -0.16,0.03 -0.23,0.09 -0.07,0.06 -0.12,0.14 -0.17,0.23 -0.04,0.09 -0.08,0.18 -0.1,0.28 -0.03,0.1 -0.04,0.19 -0.04,0.26l0 9.32 3.63 0c0.21,0 0.39,-0.05 0.55,-0.15 0.15,-0.1 0.28,-0.23 0.39,-0.38 0.1,-0.15 0.18,-0.31 0.23,-0.48 0.05,-0.17 0.08,-0.33 0.08,-0.47l0.16 0 0 2.09 -6.8 0 0 -0.17zm14.05 0l0.09 0c0.26,0 0.4,-0.12 0.4,-0.36 0,-0.09 -0.02,-0.18 -0.05,-0.28l-1.5 -4.04 -2.9 0 -1.45 3.97c-0.03,0.09 -0.05,0.17 -0.05,0.25 0,0.14 0.04,0.26 0.12,0.34 0.08,0.08 0.16,0.12 0.25,0.12l0.08 0 0 0.17 -1.84 0 0 -0.17 0.08 0c0.15,0 0.29,-0.08 0.43,-0.25 0.13,-0.17 0.25,-0.38 0.34,-0.61l3.8 -10.12 3.72 10.02c0.07,0.22 0.18,0.44 0.32,0.65 0.14,0.21 0.32,0.31 0.54,0.31l0.08 0 0 0.17 -2.46 0 0 -0.17zm-3.8 -5.24l2.56 0 -1.28 -3.47 -1.28 3.47zm7.26 -5.54l2.35 0 0 0.16 -0.08 0c-0.09,0 -0.16,0.03 -0.23,0.09 -0.07,0.06 -0.13,0.14 -0.18,0.23 -0.05,0.09 -0.08,0.18 -0.1,0.28 -0.03,0.1 -0.04,0.19 -0.04,0.26l0 6.56c0,0.43 0.05,0.83 0.14,1.2 0.08,0.36 0.23,0.68 0.44,0.94 0.21,0.27 0.49,0.48 0.83,0.62 0.35,0.15 0.77,0.23 1.27,0.23 0.55,0 0.99,-0.09 1.32,-0.27 0.34,-0.17 0.59,-0.4 0.77,-0.69 0.17,-0.28 0.29,-0.6 0.35,-0.95 0.05,-0.35 0.08,-0.7 0.08,-1.05l0 -6.59c0,-0.07 -0.01,-0.16 -0.03,-0.26 -0.03,-0.1 -0.06,-0.19 -0.11,-0.28 -0.05,-0.09 -0.11,-0.17 -0.18,-0.23 -0.06,-0.06 -0.13,-0.09 -0.21,-0.09l-0.09 0 0 -0.16 1.81 0 0 0.16 -0.08 0c-0.09,0 -0.16,0.03 -0.22,0.09 -0.06,0.06 -0.12,0.14 -0.17,0.23 -0.05,0.09 -0.08,0.18 -0.11,0.28 -0.02,0.1 -0.03,0.19 -0.03,0.26l0 6.54c0,0.72 -0.09,1.31 -0.27,1.77 -0.17,0.46 -0.42,0.82 -0.73,1.09 -0.31,0.27 -0.67,0.45 -1.08,0.55 -0.42,0.1 -0.86,0.15 -1.32,0.15 -0.5,0 -0.96,-0.06 -1.39,-0.16 -0.43,-0.11 -0.79,-0.29 -1.1,-0.56 -0.31,-0.26 -0.56,-0.63 -0.73,-1.08 -0.18,-0.46 -0.27,-1.04 -0.27,-1.74l0 -6.56c0,-0.07 -0.01,-0.16 -0.03,-0.26 -0.02,-0.1 -0.06,-0.19 -0.11,-0.28 -0.05,-0.09 -0.11,-0.17 -0.17,-0.23 -0.07,-0.06 -0.14,-0.09 -0.22,-0.09l-0.08 0 0 -0.16zm11.95 10.78l0.08 0 0 0.17 -2.34 0 0 -0.17 0.08 0c0.08,0 0.15,-0.03 0.22,-0.09 0.07,-0.07 0.12,-0.15 0.17,-0.24 0.05,-0.09 0.09,-0.18 0.11,-0.29 0.02,-0.1 0.03,-0.2 0.03,-0.29l0 -8.85c0,-0.07 -0.01,-0.16 -0.03,-0.26 -0.02,-0.1 -0.06,-0.19 -0.11,-0.28 -0.05,-0.09 -0.1,-0.17 -0.17,-0.23 -0.07,-0.06 -0.14,-0.09 -0.22,-0.09l-0.08 0 0 -0.16 2.89 0c1.11,0 1.96,0.21 2.56,0.64 0.61,0.43 0.91,1.07 0.91,1.91 0,0.42 -0.07,0.79 -0.21,1.11 -0.14,0.31 -0.32,0.58 -0.56,0.81 -0.23,0.23 -0.5,0.41 -0.82,0.55 -0.31,0.14 -0.65,0.24 -1,0.3l1.19 1.83c0.29,0.44 0.58,0.88 0.88,1.3 0.3,0.43 0.6,0.87 0.88,1.32 0.08,0.11 0.17,0.23 0.26,0.35 0.09,0.12 0.19,0.23 0.3,0.33 0.1,0.1 0.22,0.18 0.33,0.24 0.12,0.06 0.24,0.09 0.36,0.09l0 0.17 -0.72 0c-0.44,0 -0.8,-0.11 -1.08,-0.32 -0.29,-0.22 -0.52,-0.47 -0.71,-0.76 -0.5,-0.73 -0.99,-1.47 -1.48,-2.22 -0.5,-0.75 -0.99,-1.5 -1.47,-2.23 -0.12,-0.01 -0.25,-0.02 -0.39,-0.04 -0.14,-0.01 -0.27,-0.03 -0.39,-0.06l0 4.55c0,0.09 0.01,0.19 0.03,0.29 0.02,0.11 0.06,0.2 0.11,0.29 0.05,0.09 0.1,0.17 0.16,0.24 0.06,0.06 0.14,0.09 0.23,0.09zm-0.53 -10.22l0 4.22 0.08 0c0.09,0.01 0.23,0.02 0.42,0.02 0.2,0.01 0.44,0.01 0.73,0.01 0.23,0 0.47,-0.04 0.73,-0.11 0.26,-0.07 0.51,-0.19 0.73,-0.36 0.23,-0.18 0.42,-0.4 0.57,-0.68 0.15,-0.27 0.22,-0.62 0.22,-1.04 0,-0.42 -0.08,-0.77 -0.24,-1.03 -0.16,-0.27 -0.38,-0.48 -0.66,-0.63 -0.28,-0.16 -0.62,-0.26 -1.02,-0.32 -0.4,-0.05 -0.84,-0.08 -1.31,-0.08l-0.25 0zm13.57 10.22l0.09 0c0.26,0 0.4,-0.12 0.4,-0.36 0,-0.09 -0.02,-0.18 -0.05,-0.28l-1.5 -4.04 -2.9 0 -1.45 3.97c-0.03,0.09 -0.05,0.17 -0.05,0.25 0,0.14 0.04,0.26 0.12,0.34 0.08,0.08 0.16,0.12 0.25,0.12l0.08 0 0 0.17 -1.84 0 0 -0.17 0.08 0c0.15,0 0.29,-0.08 0.43,-0.25 0.13,-0.17 0.25,-0.38 0.34,-0.61l3.8 -10.12 3.72 10.02c0.07,0.22 0.18,0.44 0.32,0.65 0.14,0.21 0.32,0.31 0.54,0.31l0.08 0 0 0.17 -2.46 0 0 -0.17zm-3.8 -5.24l2.56 0 -1.28 -3.47 -1.28 3.47zm11.57 5.24l0.09 0c0.08,0 0.16,-0.03 0.23,-0.09 0.06,-0.06 0.12,-0.13 0.17,-0.22 0.05,-0.09 0.09,-0.18 0.12,-0.28 0.03,-0.1 0.04,-0.2 0.04,-0.28l0 -8.89c0,-0.07 -0.01,-0.16 -0.04,-0.26 -0.03,-0.1 -0.07,-0.19 -0.12,-0.28 -0.05,-0.09 -0.11,-0.17 -0.17,-0.23 -0.07,-0.06 -0.15,-0.09 -0.23,-0.09l-0.09 0 0 -0.16 2.39 0 0 0.16 -0.08 0c-0.09,0 -0.17,0.03 -0.23,0.09 -0.07,0.06 -0.12,0.14 -0.17,0.23 -0.04,0.09 -0.08,0.18 -0.11,0.28 -0.02,0.1 -0.04,0.19 -0.04,0.26l0 9.32 3.64 0c0.21,0 0.39,-0.05 0.54,-0.15 0.16,-0.1 0.29,-0.23 0.4,-0.38 0.1,-0.15 0.18,-0.31 0.23,-0.48 0.05,-0.17 0.07,-0.33 0.07,-0.47l0.17 0 0 2.09 -6.81 0 0 -0.17zm7.79 -10.78l2.35 0 0 0.16 -0.08 0c-0.08,0 -0.15,0.03 -0.21,0.09 -0.07,0.06 -0.13,0.14 -0.17,0.22 -0.04,0.08 -0.08,0.18 -0.11,0.28 -0.03,0.11 -0.04,0.2 -0.04,0.27l0 8.85c0,0.09 0.01,0.19 0.03,0.29 0.03,0.11 0.06,0.2 0.11,0.29 0.05,0.09 0.11,0.17 0.17,0.24 0.06,0.06 0.13,0.09 0.22,0.09l0.08 0 0 0.17 -2.35 0 0 -0.17 0.08 0c0.09,0 0.17,-0.03 0.23,-0.09 0.07,-0.06 0.13,-0.13 0.18,-0.23 0.05,-0.09 0.08,-0.19 0.1,-0.3 0.03,-0.1 0.04,-0.2 0.04,-0.29l0 -8.85c0,-0.07 -0.01,-0.16 -0.04,-0.26 -0.02,-0.1 -0.05,-0.19 -0.1,-0.28 -0.05,-0.09 -0.11,-0.17 -0.18,-0.23 -0.06,-0.06 -0.14,-0.09 -0.23,-0.09l-0.08 0 0 -0.16zm6.22 10.78l0.08 0 0 0.17 -2.34 0 0 -0.17 0.09 0c0.07,0 0.15,-0.03 0.21,-0.09 0.07,-0.07 0.13,-0.15 0.18,-0.24 0.05,-0.09 0.08,-0.18 0.11,-0.29 0.02,-0.1 0.03,-0.2 0.03,-0.29l0 -8.85c0,-0.07 -0.01,-0.16 -0.03,-0.26 -0.03,-0.1 -0.06,-0.19 -0.11,-0.28 -0.05,-0.09 -0.11,-0.17 -0.18,-0.23 -0.06,-0.06 -0.14,-0.09 -0.21,-0.09l-0.09 0 0 -0.16 2.89 0c1.11,0 1.96,0.21 2.57,0.64 0.6,0.43 0.9,1.07 0.9,1.91 0,0.42 -0.07,0.79 -0.21,1.11 -0.13,0.31 -0.32,0.58 -0.55,0.81 -0.23,0.23 -0.51,0.41 -0.82,0.55 -0.32,0.14 -0.65,0.24 -1.01,0.3l1.2 1.83c0.29,0.44 0.58,0.88 0.88,1.3 0.3,0.43 0.59,0.87 0.88,1.32 0.07,0.11 0.16,0.23 0.25,0.35 0.1,0.12 0.2,0.23 0.3,0.33 0.11,0.1 0.22,0.18 0.33,0.24 0.12,0.06 0.24,0.09 0.36,0.09l0 0.17 -0.71 0c-0.44,0 -0.81,-0.11 -1.09,-0.32 -0.28,-0.22 -0.52,-0.47 -0.7,-0.76 -0.5,-0.73 -1,-1.47 -1.49,-2.22 -0.49,-0.75 -0.98,-1.5 -1.47,-2.23 -0.12,-0.01 -0.25,-0.02 -0.39,-0.04 -0.14,-0.01 -0.27,-0.03 -0.39,-0.06l0 4.55c0,0.09 0.01,0.19 0.03,0.29 0.03,0.11 0.06,0.2 0.11,0.29 0.05,0.09 0.11,0.17 0.17,0.24 0.06,0.06 0.13,0.09 0.22,0.09zm-0.53 -10.22l0 4.22 0.08 0c0.09,0.01 0.23,0.02 0.43,0.02 0.19,0.01 0.43,0.01 0.72,0.01 0.23,0 0.48,-0.04 0.74,-0.11 0.26,-0.07 0.5,-0.19 0.73,-0.36 0.22,-0.18 0.41,-0.4 0.56,-0.68 0.15,-0.27 0.23,-0.62 0.23,-1.04 0,-0.42 -0.08,-0.77 -0.24,-1.03 -0.16,-0.27 -0.39,-0.48 -0.67,-0.63 -0.28,-0.16 -0.62,-0.26 -1.02,-0.32 -0.4,-0.05 -0.83,-0.08 -1.31,-0.08l-0.25 0zm12.83 -0.73c0.86,0 1.64,0.15 2.33,0.46 0.68,0.3 1.27,0.71 1.75,1.22 0.48,0.52 0.85,1.12 1.11,1.8 0.26,0.68 0.39,1.39 0.39,2.13 0,0.83 -0.15,1.59 -0.46,2.29 -0.3,0.7 -0.72,1.3 -1.25,1.79 -0.53,0.5 -1.15,0.89 -1.85,1.17 -0.7,0.29 -1.45,0.43 -2.25,0.43 -0.85,0 -1.62,-0.16 -2.3,-0.47 -0.68,-0.31 -1.26,-0.72 -1.73,-1.23 -0.47,-0.51 -0.83,-1.09 -1.08,-1.76 -0.26,-0.66 -0.39,-1.35 -0.39,-2.07 0,-0.71 0.13,-1.41 0.39,-2.1 0.25,-0.69 0.62,-1.31 1.12,-1.85 0.49,-0.54 1.09,-0.98 1.8,-1.31 0.71,-0.33 1.51,-0.5 2.42,-0.5zm-0.01 10.71c0.75,-0.04 1.4,-0.21 1.96,-0.51 0.56,-0.3 1.03,-0.69 1.4,-1.16 0.38,-0.47 0.66,-0.99 0.84,-1.55 0.19,-0.57 0.28,-1.13 0.28,-1.68 0,-0.61 -0.11,-1.22 -0.34,-1.84 -0.22,-0.62 -0.53,-1.18 -0.94,-1.69 -0.41,-0.5 -0.9,-0.91 -1.48,-1.23 -0.57,-0.31 -1.21,-0.47 -1.92,-0.47 -0.68,0 -1.3,0.15 -1.84,0.46 -0.55,0.3 -1.01,0.69 -1.39,1.17 -0.38,0.47 -0.68,1 -0.87,1.59 -0.2,0.59 -0.3,1.16 -0.3,1.73 0,0.61 0.11,1.22 0.35,1.83 0.23,0.62 0.55,1.17 0.96,1.67 0.41,0.5 0.89,0.9 1.46,1.21 0.56,0.31 1.17,0.47 1.83,0.47zm-1.42 -11.01l2.36 -1.78 0.43 0.75 -2.74 1.13 -0.05 -0.1zm10.21 11.25l0.09 0 0 0.17 -1.85 0 0 -0.17 0.09 0c0.07,0 0.15,-0.03 0.22,-0.09 0.07,-0.07 0.13,-0.15 0.17,-0.24 0.05,-0.09 0.08,-0.18 0.11,-0.29 0.03,-0.1 0.04,-0.2 0.04,-0.29l0 -8.85c0,-0.07 0,-0.16 -0.02,-0.26 -0.02,-0.1 -0.05,-0.19 -0.09,-0.28 -0.05,-0.09 -0.11,-0.17 -0.19,-0.23 -0.07,-0.06 -0.17,-0.09 -0.28,-0.09l-0.08 0 0 -0.16 1.68 0 6.02 9.49 0 -8.47c0,-0.07 -0.01,-0.16 -0.04,-0.26 -0.03,-0.1 -0.07,-0.19 -0.12,-0.28 -0.05,-0.09 -0.1,-0.17 -0.17,-0.23 -0.07,-0.06 -0.14,-0.09 -0.23,-0.09l-0.09 0 0 -0.16 1.86 0 0 0.16 -0.08 0c-0.09,0 -0.17,0.03 -0.23,0.09 -0.07,0.06 -0.13,0.14 -0.18,0.23 -0.05,0.09 -0.08,0.18 -0.1,0.28 -0.03,0.1 -0.04,0.19 -0.04,0.26l0 9.93 -1.03 0 -6.01 -9.53 0 8.45c0,0.09 0.02,0.19 0.04,0.29 0.02,0.11 0.06,0.2 0.11,0.29 0.05,0.09 0.1,0.17 0.17,0.24 0.07,0.06 0.14,0.09 0.23,0.09z"
   id="path13"
   style="fill:#f0cda1;fill-opacity:1;stroke:none" />
  <g
   id="_2327649822000"
   style="stroke:none">
   <path
   class="fil3"
   d="M20.71 56.11l0.92 0 0 0.06 -0.03 0c-0.03,0 -0.06,0.01 -0.09,0.04 -0.02,0.02 -0.05,0.05 -0.06,0.09 -0.02,0.03 -0.03,0.07 -0.05,0.11 -0.01,0.03 -0.01,0.07 -0.01,0.1l0 1.73c-0.08,0.03 -0.17,0.06 -0.27,0.08 -0.1,0.02 -0.2,0.04 -0.31,0.06 -0.11,0.01 -0.22,0.02 -0.33,0.03 -0.11,0.01 -0.21,0.02 -0.31,0.02 -0.39,0 -0.73,-0.07 -1.01,-0.2 -0.29,-0.13 -0.53,-0.3 -0.72,-0.51 -0.19,-0.21 -0.33,-0.44 -0.43,-0.71 -0.09,-0.26 -0.14,-0.52 -0.14,-0.79 0,-0.27 0.05,-0.54 0.14,-0.8 0.1,-0.26 0.24,-0.5 0.43,-0.7 0.19,-0.21 0.43,-0.38 0.73,-0.51 0.29,-0.12 0.63,-0.19 1.03,-0.19 0.16,0 0.3,0.02 0.42,0.04 0.13,0.03 0.25,0.05 0.35,0.07 0.05,0.02 0.1,0.03 0.14,0.04 0.04,0.01 0.08,0.02 0.11,0.02l0.06 0 0 0.68 -0.07 0c-0.02,-0.13 -0.07,-0.24 -0.15,-0.32 -0.07,-0.08 -0.16,-0.15 -0.26,-0.19 -0.1,-0.04 -0.2,-0.07 -0.31,-0.09 -0.11,-0.01 -0.22,-0.02 -0.31,-0.02 -0.33,0 -0.61,0.06 -0.84,0.17 -0.24,0.12 -0.43,0.26 -0.59,0.44 -0.15,0.19 -0.26,0.39 -0.33,0.62 -0.08,0.22 -0.11,0.45 -0.11,0.67 0,0.25 0.04,0.5 0.14,0.74 0.09,0.25 0.23,0.47 0.4,0.66 0.17,0.19 0.38,0.35 0.63,0.46 0.24,0.12 0.51,0.18 0.81,0.18 0.08,0 0.18,-0.01 0.3,-0.03 0.12,-0.02 0.24,-0.06 0.37,-0.13l0 -1.52c0,-0.03 -0.01,-0.07 -0.02,-0.1 -0.01,-0.04 -0.02,-0.08 -0.04,-0.11 -0.02,-0.04 -0.04,-0.07 -0.07,-0.09 -0.02,-0.03 -0.05,-0.04 -0.09,-0.04l-0.03 0 0 -0.06zm3.15 2.19l0.03 0c0.04,0 0.07,-0.02 0.09,-0.04 0.03,-0.02 0.05,-0.05 0.07,-0.09 0.02,-0.03 0.04,-0.07 0.05,-0.11 0.01,-0.04 0.01,-0.07 0.01,-0.11l0 -3.46c0,-0.03 0,-0.07 -0.01,-0.1 -0.01,-0.04 -0.03,-0.08 -0.05,-0.11 -0.02,-0.04 -0.04,-0.07 -0.07,-0.09 -0.02,-0.03 -0.05,-0.04 -0.09,-0.04l-0.03 0 0 -0.06 2.49 0 0 0.6 -0.06 0c-0.01,-0.1 -0.05,-0.19 -0.12,-0.26 -0.07,-0.08 -0.17,-0.12 -0.32,-0.12l-1.3 0 0 1.64 1.07 0c0.1,0 0.18,-0.03 0.25,-0.09 0.07,-0.06 0.1,-0.13 0.1,-0.21l0.07 0 0 0.81 -0.07 0c0,-0.08 -0.03,-0.15 -0.1,-0.2 -0.06,-0.06 -0.14,-0.09 -0.25,-0.09l-1.07 0 0 1.96 1.42 0c0.08,0 0.15,-0.02 0.21,-0.05 0.06,-0.04 0.11,-0.09 0.15,-0.14 0.04,-0.06 0.07,-0.12 0.09,-0.18 0.02,-0.06 0.03,-0.11 0.03,-0.16l0.07 0 0 0.76 -2.66 0 0 -0.06zm7.45 -1.09c0,0.22 -0.05,0.4 -0.13,0.56 -0.09,0.15 -0.2,0.28 -0.34,0.37 -0.14,0.1 -0.29,0.16 -0.46,0.21 -0.17,0.04 -0.34,0.06 -0.51,0.06 -0.17,0 -0.32,-0.02 -0.45,-0.05 -0.12,-0.03 -0.24,-0.07 -0.34,-0.1 -0.07,-0.02 -0.13,-0.04 -0.19,-0.05 -0.05,-0.02 -0.11,-0.02 -0.17,-0.02l0 -0.74 0.07 0c0,0.16 0.04,0.29 0.12,0.39 0.09,0.1 0.19,0.17 0.3,0.22 0.11,0.05 0.22,0.09 0.34,0.1 0.11,0.02 0.19,0.03 0.24,0.03 0.19,0 0.35,-0.03 0.48,-0.09 0.14,-0.05 0.25,-0.12 0.34,-0.21 0.08,-0.09 0.15,-0.19 0.19,-0.29 0.04,-0.11 0.06,-0.22 0.06,-0.33 0,-0.15 -0.03,-0.27 -0.09,-0.36 -0.06,-0.1 -0.14,-0.19 -0.24,-0.26 -0.09,-0.07 -0.21,-0.13 -0.33,-0.19 -0.13,-0.05 -0.25,-0.1 -0.38,-0.15 -0.15,-0.06 -0.29,-0.12 -0.44,-0.18 -0.14,-0.06 -0.27,-0.13 -0.38,-0.22 -0.11,-0.09 -0.2,-0.19 -0.27,-0.32 -0.07,-0.12 -0.1,-0.27 -0.1,-0.45 0,-0.19 0.03,-0.36 0.11,-0.5 0.07,-0.14 0.17,-0.25 0.29,-0.34 0.12,-0.1 0.26,-0.16 0.42,-0.21 0.16,-0.04 0.32,-0.07 0.48,-0.07 0.12,0 0.22,0.01 0.32,0.03 0.1,0.01 0.19,0.03 0.29,0.05 0.07,0.02 0.14,0.03 0.21,0.04 0.07,0.01 0.13,0.02 0.2,0.02l0 0.67 -0.07 0c0,-0.23 -0.09,-0.38 -0.26,-0.46 -0.17,-0.08 -0.4,-0.12 -0.7,-0.12 -0.18,0 -0.32,0.03 -0.43,0.09 -0.11,0.06 -0.2,0.13 -0.26,0.21 -0.07,0.09 -0.11,0.18 -0.13,0.27 -0.03,0.1 -0.04,0.19 -0.04,0.26 0,0.12 0.03,0.22 0.08,0.31 0.05,0.09 0.13,0.16 0.22,0.23 0.09,0.06 0.19,0.12 0.31,0.17 0.12,0.05 0.25,0.1 0.38,0.15 0.14,0.06 0.29,0.12 0.44,0.18 0.16,0.07 0.29,0.15 0.41,0.24 0.12,0.1 0.22,0.21 0.29,0.35 0.08,0.14 0.12,0.31 0.12,0.5zm3.87 1.09l0.03 0 0 0.06 -0.92 0 0 -0.06 0.03 0c0.04,0 0.07,-0.02 0.09,-0.04 0.03,-0.03 0.05,-0.06 0.07,-0.09 0.02,-0.04 0.03,-0.08 0.04,-0.12 0.01,-0.04 0.02,-0.08 0.02,-0.11l0 -3.61 -0.76 0c-0.06,0 -0.12,0.01 -0.18,0.04 -0.05,0.03 -0.09,0.07 -0.13,0.12 -0.03,0.04 -0.06,0.09 -0.07,0.15 -0.02,0.05 -0.03,0.1 -0.03,0.15l-0.06 0 0 -0.7 2.9 0 0 0.7 -0.06 0c0,-0.05 -0.01,-0.1 -0.03,-0.15 -0.02,-0.06 -0.04,-0.11 -0.08,-0.15 -0.03,-0.05 -0.07,-0.09 -0.13,-0.12 -0.05,-0.03 -0.11,-0.04 -0.18,-0.04l-0.76 0 0 3.61c0,0.03 0,0.07 0.01,0.11 0.01,0.04 0.03,0.08 0.04,0.12 0.02,0.03 0.05,0.06 0.07,0.09 0.02,0.02 0.05,0.04 0.09,0.04zm3.1 -4.21l0.92 0 0 0.06 -0.04 0c-0.03,0 -0.05,0.01 -0.08,0.04 -0.03,0.02 -0.05,0.05 -0.06,0.08 -0.02,0.03 -0.04,0.07 -0.05,0.11 -0.01,0.04 -0.01,0.08 -0.01,0.11l0 3.45c0,0.03 0,0.07 0.01,0.11 0.01,0.04 0.02,0.08 0.04,0.12 0.02,0.03 0.04,0.06 0.07,0.09 0.02,0.02 0.05,0.04 0.08,0.04l0.04 0 0 0.06 -0.92 0 0 -0.06 0.03 0c0.03,0 0.06,-0.02 0.09,-0.04 0.03,-0.02 0.05,-0.05 0.07,-0.09 0.02,-0.04 0.03,-0.08 0.04,-0.12 0.01,-0.04 0.01,-0.08 0.01,-0.11l0 -3.45c0,-0.03 0,-0.07 -0.01,-0.1 -0.01,-0.04 -0.02,-0.08 -0.04,-0.11 -0.02,-0.04 -0.04,-0.07 -0.07,-0.09 -0.03,-0.03 -0.06,-0.04 -0.09,-0.04l-0.03 0 0 -0.06zm5.41 -0.07c0.34,0 0.64,0.06 0.91,0.18 0.26,0.12 0.49,0.28 0.68,0.48 0.19,0.2 0.33,0.43 0.43,0.7 0.1,0.26 0.15,0.54 0.15,0.83 0,0.32 -0.06,0.62 -0.17,0.89 -0.12,0.28 -0.29,0.51 -0.49,0.7 -0.21,0.2 -0.45,0.35 -0.72,0.46 -0.28,0.11 -0.57,0.17 -0.88,0.17 -0.33,0 -0.63,-0.07 -0.9,-0.19 -0.26,-0.12 -0.49,-0.28 -0.67,-0.48 -0.18,-0.19 -0.33,-0.42 -0.43,-0.68 -0.09,-0.26 -0.14,-0.53 -0.14,-0.81 0,-0.28 0.05,-0.55 0.14,-0.82 0.1,-0.27 0.25,-0.51 0.44,-0.72 0.19,-0.21 0.43,-0.38 0.7,-0.51 0.28,-0.13 0.6,-0.2 0.95,-0.2zm0 4.18c0.29,-0.01 0.54,-0.08 0.76,-0.2 0.22,-0.12 0.4,-0.27 0.55,-0.45 0.14,-0.19 0.25,-0.39 0.32,-0.61 0.07,-0.22 0.11,-0.44 0.11,-0.65 0,-0.24 -0.04,-0.48 -0.13,-0.72 -0.09,-0.24 -0.21,-0.46 -0.37,-0.66 -0.16,-0.19 -0.35,-0.35 -0.57,-0.48 -0.23,-0.12 -0.48,-0.18 -0.75,-0.18 -0.27,0 -0.51,0.06 -0.72,0.18 -0.21,0.12 -0.39,0.27 -0.54,0.45 -0.15,0.19 -0.27,0.4 -0.34,0.63 -0.08,0.22 -0.12,0.45 -0.12,0.67 0,0.24 0.04,0.47 0.14,0.71 0.09,0.24 0.21,0.46 0.37,0.65 0.16,0.2 0.35,0.36 0.57,0.48 0.22,0.12 0.46,0.18 0.72,0.18zm-0.56 -4.29l0.92 -0.7 0.17 0.3 -1.07 0.44 -0.02 -0.04zm6.7 0.18l0.91 0 0 0.06 -0.03 0c-0.03,0 -0.06,0.01 -0.08,0.04 -0.03,0.02 -0.05,0.05 -0.07,0.08 -0.01,0.03 -0.03,0.07 -0.04,0.11 -0.01,0.04 -0.01,0.08 -0.01,0.11l0 3.45c0,0.03 0,0.07 0.01,0.11 0.01,0.04 0.02,0.08 0.04,0.12 0.02,0.03 0.04,0.06 0.07,0.09 0.02,0.02 0.05,0.04 0.08,0.04l0.03 0 0 0.06 -0.91 0 0 -0.06 0.03 0c0.03,0 0.06,-0.02 0.09,-0.04 0.02,-0.02 0.05,-0.05 0.07,-0.09 0.02,-0.04 0.03,-0.08 0.04,-0.12 0.01,-0.04 0.01,-0.08 0.01,-0.11l0 -3.45c0,-0.03 0,-0.07 -0.01,-0.1 -0.01,-0.04 -0.02,-0.08 -0.04,-0.11 -0.02,-0.04 -0.05,-0.07 -0.07,-0.09 -0.03,-0.03 -0.06,-0.04 -0.09,-0.04l-0.03 0 0 -0.06zm7.38 4.21l0.03 0c0.11,0 0.16,-0.05 0.16,-0.15 0,-0.03 -0.01,-0.07 -0.02,-0.11l-0.58 -1.57 -1.14 0 -0.56 1.55c-0.01,0.03 -0.02,0.06 -0.02,0.09 0,0.06 0.02,0.1 0.05,0.14 0.03,0.03 0.06,0.05 0.09,0.05l0.04 0 0 0.06 -0.72 0 0 -0.06 0.03 0c0.06,0 0.11,-0.04 0.17,-0.1 0.05,-0.07 0.09,-0.15 0.13,-0.24l1.48 -3.95 1.45 3.91c0.03,0.09 0.07,0.17 0.13,0.25 0.05,0.08 0.12,0.13 0.21,0.13l0.03 0 0 0.06 -0.96 0 0 -0.06zm-1.48 -2.05l1 0 -0.5 -1.35 -0.5 1.35zm7.13 0.96c0,0.22 -0.04,0.4 -0.13,0.56 -0.08,0.15 -0.2,0.28 -0.33,0.37 -0.14,0.1 -0.29,0.16 -0.46,0.21 -0.17,0.04 -0.34,0.06 -0.51,0.06 -0.17,0 -0.32,-0.02 -0.45,-0.05 -0.13,-0.03 -0.24,-0.07 -0.34,-0.1 -0.07,-0.02 -0.14,-0.04 -0.19,-0.05 -0.06,-0.02 -0.11,-0.02 -0.17,-0.02l0 -0.74 0.06 0c0,0.16 0.05,0.29 0.13,0.39 0.08,0.1 0.18,0.17 0.3,0.22 0.11,0.05 0.22,0.09 0.33,0.1 0.12,0.02 0.2,0.03 0.25,0.03 0.19,0 0.35,-0.03 0.48,-0.09 0.14,-0.05 0.25,-0.12 0.33,-0.21 0.09,-0.09 0.15,-0.19 0.19,-0.29 0.05,-0.11 0.07,-0.22 0.07,-0.33 0,-0.15 -0.03,-0.27 -0.09,-0.36 -0.07,-0.1 -0.14,-0.19 -0.24,-0.26 -0.1,-0.07 -0.21,-0.13 -0.33,-0.19 -0.13,-0.05 -0.26,-0.1 -0.39,-0.15 -0.14,-0.06 -0.29,-0.12 -0.43,-0.18 -0.14,-0.06 -0.27,-0.13 -0.38,-0.22 -0.11,-0.09 -0.2,-0.19 -0.27,-0.32 -0.07,-0.12 -0.11,-0.27 -0.11,-0.45 0,-0.19 0.04,-0.36 0.11,-0.5 0.08,-0.14 0.17,-0.25 0.3,-0.34 0.12,-0.1 0.26,-0.16 0.42,-0.21 0.16,-0.04 0.32,-0.07 0.48,-0.07 0.11,0 0.22,0.01 0.32,0.03 0.1,0.01 0.19,0.03 0.28,0.05 0.08,0.02 0.15,0.03 0.22,0.04 0.07,0.01 0.13,0.02 0.2,0.02l0 0.67 -0.07 0c-0.01,-0.23 -0.1,-0.38 -0.26,-0.46 -0.17,-0.08 -0.41,-0.12 -0.71,-0.12 -0.17,0 -0.31,0.03 -0.42,0.09 -0.11,0.06 -0.2,0.13 -0.26,0.21 -0.07,0.09 -0.11,0.18 -0.14,0.27 -0.02,0.1 -0.03,0.19 -0.03,0.26 0,0.12 0.02,0.22 0.08,0.31 0.05,0.09 0.12,0.16 0.22,0.23 0.09,0.06 0.19,0.12 0.31,0.17 0.12,0.05 0.24,0.1 0.37,0.15 0.15,0.06 0.3,0.12 0.45,0.18 0.15,0.07 0.29,0.15 0.41,0.24 0.12,0.1 0.21,0.21 0.29,0.35 0.07,0.14 0.11,0.31 0.11,0.5zm4.86 0c0,0.22 -0.05,0.4 -0.13,0.56 -0.09,0.15 -0.2,0.28 -0.34,0.37 -0.13,0.1 -0.29,0.16 -0.46,0.21 -0.17,0.04 -0.34,0.06 -0.51,0.06 -0.17,0 -0.32,-0.02 -0.44,-0.05 -0.13,-0.03 -0.25,-0.07 -0.35,-0.1 -0.07,-0.02 -0.13,-0.04 -0.19,-0.05 -0.05,-0.02 -0.11,-0.02 -0.17,-0.02l0 -0.74 0.07 0c0,0.16 0.04,0.29 0.13,0.39 0.08,0.1 0.18,0.17 0.29,0.22 0.11,0.05 0.23,0.09 0.34,0.1 0.11,0.02 0.19,0.03 0.25,0.03 0.18,0 0.34,-0.03 0.48,-0.09 0.13,-0.05 0.24,-0.12 0.33,-0.21 0.08,-0.09 0.15,-0.19 0.19,-0.29 0.04,-0.11 0.06,-0.22 0.06,-0.33 0,-0.15 -0.03,-0.27 -0.09,-0.36 -0.06,-0.1 -0.14,-0.19 -0.24,-0.26 -0.09,-0.07 -0.2,-0.13 -0.33,-0.19 -0.12,-0.05 -0.25,-0.1 -0.38,-0.15 -0.15,-0.06 -0.29,-0.12 -0.43,-0.18 -0.15,-0.06 -0.27,-0.13 -0.39,-0.22 -0.11,-0.09 -0.2,-0.19 -0.27,-0.32 -0.07,-0.12 -0.1,-0.27 -0.1,-0.45 0,-0.19 0.03,-0.36 0.11,-0.5 0.07,-0.14 0.17,-0.25 0.29,-0.34 0.13,-0.1 0.27,-0.16 0.42,-0.21 0.16,-0.04 0.32,-0.07 0.49,-0.07 0.11,0 0.21,0.01 0.31,0.03 0.1,0.01 0.2,0.03 0.29,0.05 0.07,0.02 0.14,0.03 0.21,0.04 0.07,0.01 0.14,0.02 0.2,0.02l0 0.67 -0.06 0c-0.01,-0.23 -0.1,-0.38 -0.27,-0.46 -0.17,-0.08 -0.4,-0.12 -0.7,-0.12 -0.17,0 -0.32,0.03 -0.43,0.09 -0.11,0.06 -0.19,0.13 -0.26,0.21 -0.07,0.09 -0.11,0.18 -0.13,0.27 -0.03,0.1 -0.04,0.19 -0.04,0.26 0,0.12 0.03,0.22 0.08,0.31 0.06,0.09 0.13,0.16 0.22,0.23 0.09,0.06 0.2,0.12 0.32,0.17 0.11,0.05 0.24,0.1 0.37,0.15 0.15,0.06 0.29,0.12 0.45,0.18 0.15,0.07 0.28,0.15 0.4,0.24 0.12,0.1 0.22,0.21 0.29,0.35 0.08,0.14 0.12,0.31 0.12,0.5zm2.23 1.09l0.03 0c0.04,0 0.07,-0.02 0.09,-0.04 0.03,-0.02 0.05,-0.05 0.07,-0.09 0.02,-0.03 0.04,-0.07 0.05,-0.11 0.01,-0.04 0.01,-0.07 0.01,-0.11l0 -3.46c0,-0.03 0,-0.07 -0.01,-0.1 -0.01,-0.04 -0.03,-0.08 -0.05,-0.11 -0.02,-0.04 -0.04,-0.07 -0.07,-0.09 -0.02,-0.03 -0.05,-0.04 -0.09,-0.04l-0.03 0 0 -0.06 2.49 0 0 0.6 -0.06 0c-0.01,-0.1 -0.05,-0.19 -0.12,-0.26 -0.07,-0.08 -0.18,-0.12 -0.32,-0.12l-1.3 0 0 1.64 1.07 0c0.1,0 0.18,-0.03 0.25,-0.09 0.07,-0.06 0.1,-0.13 0.1,-0.21l0.07 0 0 0.81 -0.07 0c0,-0.08 -0.03,-0.15 -0.1,-0.2 -0.06,-0.06 -0.14,-0.09 -0.25,-0.09l-1.07 0 0 1.96 1.41 0c0.09,0 0.16,-0.02 0.22,-0.05 0.06,-0.04 0.11,-0.09 0.15,-0.14 0.04,-0.06 0.07,-0.12 0.09,-0.18 0.02,-0.06 0.03,-0.11 0.03,-0.16l0.06 0 0 0.76 -2.65 0 0 -0.06zm7.45 -1.09c0,0.22 -0.05,0.4 -0.13,0.56 -0.09,0.15 -0.2,0.28 -0.34,0.37 -0.14,0.1 -0.29,0.16 -0.46,0.21 -0.17,0.04 -0.34,0.06 -0.51,0.06 -0.17,0 -0.32,-0.02 -0.45,-0.05 -0.12,-0.03 -0.24,-0.07 -0.34,-0.1 -0.07,-0.02 -0.13,-0.04 -0.19,-0.05 -0.06,-0.02 -0.11,-0.02 -0.17,-0.02l0 -0.74 0.07 0c0,0.16 0.04,0.29 0.12,0.39 0.09,0.1 0.19,0.17 0.3,0.22 0.11,0.05 0.22,0.09 0.34,0.1 0.11,0.02 0.19,0.03 0.24,0.03 0.19,0 0.35,-0.03 0.48,-0.09 0.14,-0.05 0.25,-0.12 0.33,-0.21 0.09,-0.09 0.16,-0.19 0.2,-0.29 0.04,-0.11 0.06,-0.22 0.06,-0.33 0,-0.15 -0.03,-0.27 -0.09,-0.36 -0.06,-0.1 -0.14,-0.19 -0.24,-0.26 -0.1,-0.07 -0.21,-0.13 -0.33,-0.19 -0.13,-0.05 -0.25,-0.1 -0.38,-0.15 -0.15,-0.06 -0.3,-0.12 -0.44,-0.18 -0.14,-0.06 -0.27,-0.13 -0.38,-0.22 -0.11,-0.09 -0.2,-0.19 -0.27,-0.32 -0.07,-0.12 -0.1,-0.27 -0.1,-0.45 0,-0.19 0.03,-0.36 0.11,-0.5 0.07,-0.14 0.17,-0.25 0.29,-0.34 0.12,-0.1 0.26,-0.16 0.42,-0.21 0.16,-0.04 0.32,-0.07 0.48,-0.07 0.11,0 0.22,0.01 0.32,0.03 0.1,0.01 0.19,0.03 0.28,0.05 0.08,0.02 0.15,0.03 0.22,0.04 0.07,0.01 0.13,0.02 0.2,0.02l0 0.67 -0.07 0c0,-0.23 -0.09,-0.38 -0.26,-0.46 -0.17,-0.08 -0.4,-0.12 -0.7,-0.12 -0.18,0 -0.32,0.03 -0.43,0.09 -0.11,0.06 -0.2,0.13 -0.26,0.21 -0.07,0.09 -0.11,0.18 -0.14,0.27 -0.02,0.1 -0.03,0.19 -0.03,0.26 0,0.12 0.03,0.22 0.08,0.31 0.05,0.09 0.13,0.16 0.22,0.23 0.09,0.06 0.19,0.12 0.31,0.17 0.12,0.05 0.25,0.1 0.38,0.15 0.14,0.06 0.29,0.12 0.44,0.18 0.15,0.07 0.29,0.15 0.41,0.24 0.12,0.1 0.22,0.21 0.29,0.35 0.08,0.14 0.12,0.31 0.12,0.5zm4.85 0c0,0.22 -0.04,0.4 -0.13,0.56 -0.09,0.15 -0.2,0.28 -0.33,0.37 -0.14,0.1 -0.29,0.16 -0.46,0.21 -0.18,0.04 -0.35,0.06 -0.51,0.06 -0.18,0 -0.33,-0.02 -0.45,-0.05 -0.13,-0.03 -0.24,-0.07 -0.35,-0.1 -0.07,-0.02 -0.13,-0.04 -0.18,-0.05 -0.06,-0.02 -0.12,-0.02 -0.17,-0.02l0 -0.74 0.06 0c0,0.16 0.04,0.29 0.13,0.39 0.08,0.1 0.18,0.17 0.29,0.22 0.12,0.05 0.23,0.09 0.34,0.1 0.11,0.02 0.2,0.03 0.25,0.03 0.18,0 0.34,-0.03 0.48,-0.09 0.13,-0.05 0.24,-0.12 0.33,-0.21 0.09,-0.09 0.15,-0.19 0.19,-0.29 0.04,-0.11 0.06,-0.22 0.06,-0.33 0,-0.15 -0.03,-0.27 -0.09,-0.36 -0.06,-0.1 -0.14,-0.19 -0.23,-0.26 -0.1,-0.07 -0.21,-0.13 -0.34,-0.19 -0.12,-0.05 -0.25,-0.1 -0.38,-0.15 -0.15,-0.06 -0.29,-0.12 -0.43,-0.18 -0.14,-0.06 -0.27,-0.13 -0.38,-0.22 -0.12,-0.09 -0.21,-0.19 -0.28,-0.32 -0.07,-0.12 -0.1,-0.27 -0.1,-0.45 0,-0.19 0.04,-0.36 0.11,-0.5 0.07,-0.14 0.17,-0.25 0.29,-0.34 0.13,-0.1 0.27,-0.16 0.43,-0.21 0.15,-0.04 0.31,-0.07 0.48,-0.07 0.11,0 0.22,0.01 0.31,0.03 0.1,0.01 0.2,0.03 0.29,0.05 0.07,0.02 0.14,0.03 0.21,0.04 0.07,0.01 0.14,0.02 0.2,0.02l0 0.67 -0.06 0c-0.01,-0.23 -0.1,-0.38 -0.27,-0.46 -0.17,-0.08 -0.4,-0.12 -0.7,-0.12 -0.17,0 -0.31,0.03 -0.42,0.09 -0.11,0.06 -0.2,0.13 -0.27,0.21 -0.06,0.09 -0.11,0.18 -0.13,0.27 -0.02,0.1 -0.04,0.19 -0.04,0.26 0,0.12 0.03,0.22 0.08,0.31 0.06,0.09 0.13,0.16 0.22,0.23 0.09,0.06 0.2,0.12 0.32,0.17 0.12,0.05 0.24,0.1 0.37,0.15 0.15,0.06 0.3,0.12 0.45,0.18 0.15,0.07 0.29,0.15 0.4,0.24 0.12,0.1 0.22,0.21 0.3,0.35 0.07,0.14 0.11,0.31 0.11,0.5zm4.41 -3.19c0.34,0 0.64,0.06 0.91,0.18 0.27,0.12 0.5,0.28 0.68,0.48 0.19,0.2 0.34,0.43 0.44,0.7 0.1,0.26 0.15,0.54 0.15,0.83 0,0.32 -0.06,0.62 -0.18,0.89 -0.12,0.28 -0.28,0.51 -0.49,0.7 -0.2,0.2 -0.44,0.35 -0.72,0.46 -0.27,0.11 -0.57,0.17 -0.88,0.17 -0.33,0 -0.63,-0.07 -0.89,-0.19 -0.27,-0.12 -0.49,-0.28 -0.68,-0.48 -0.18,-0.19 -0.32,-0.42 -0.42,-0.68 -0.1,-0.26 -0.15,-0.53 -0.15,-0.81 0,-0.28 0.05,-0.55 0.15,-0.82 0.1,-0.27 0.25,-0.51 0.44,-0.72 0.19,-0.21 0.42,-0.38 0.7,-0.51 0.28,-0.13 0.59,-0.2 0.94,-0.2zm0 4.18c0.29,-0.01 0.55,-0.08 0.76,-0.2 0.22,-0.12 0.4,-0.27 0.55,-0.45 0.15,-0.19 0.26,-0.39 0.33,-0.61 0.07,-0.22 0.11,-0.44 0.11,-0.65 0,-0.24 -0.05,-0.48 -0.13,-0.72 -0.09,-0.24 -0.21,-0.46 -0.37,-0.66 -0.16,-0.19 -0.35,-0.35 -0.58,-0.48 -0.22,-0.12 -0.47,-0.18 -0.75,-0.18 -0.26,0 -0.5,0.06 -0.72,0.18 -0.21,0.12 -0.39,0.27 -0.54,0.45 -0.15,0.19 -0.26,0.4 -0.34,0.63 -0.08,0.22 -0.11,0.45 -0.11,0.67 0,0.24 0.04,0.47 0.13,0.71 0.09,0.24 0.22,0.46 0.38,0.65 0.16,0.2 0.35,0.36 0.57,0.48 0.21,0.12 0.45,0.18 0.71,0.18zm5.31 0.1l0.04 0 0 0.06 -0.92 0 0 -0.06 0.03 0c0.04,0 0.06,-0.02 0.09,-0.04 0.02,-0.03 0.05,-0.06 0.07,-0.09 0.02,-0.04 0.03,-0.08 0.04,-0.12 0.01,-0.04 0.01,-0.08 0.01,-0.11l0 -3.45c0,-0.03 0,-0.07 -0.01,-0.1 -0.01,-0.04 -0.02,-0.08 -0.04,-0.11 -0.02,-0.04 -0.05,-0.07 -0.07,-0.09 -0.03,-0.03 -0.05,-0.04 -0.09,-0.04l-0.03 0 0 -0.06 1.13 0c0.43,0 0.76,0.08 1,0.25 0.23,0.17 0.35,0.42 0.35,0.74 0,0.17 -0.03,0.31 -0.08,0.44 -0.05,0.12 -0.13,0.22 -0.22,0.31 -0.09,0.09 -0.19,0.16 -0.32,0.22 -0.12,0.05 -0.25,0.09 -0.39,0.12l0.47 0.71c0.11,0.17 0.22,0.34 0.34,0.51 0.12,0.16 0.23,0.33 0.34,0.51 0.03,0.04 0.07,0.09 0.1,0.14 0.04,0.04 0.08,0.09 0.12,0.13 0.04,0.04 0.09,0.07 0.13,0.09 0.05,0.02 0.09,0.04 0.14,0.04l0 0.06 -0.28 0c-0.17,0 -0.31,-0.04 -0.42,-0.13 -0.11,-0.08 -0.2,-0.18 -0.28,-0.29 -0.19,-0.29 -0.39,-0.57 -0.58,-0.87 -0.19,-0.29 -0.38,-0.58 -0.57,-0.87 -0.05,0 -0.1,0 -0.15,-0.01 -0.06,-0.01 -0.11,-0.02 -0.15,-0.02l0 1.77c0,0.03 0,0.07 0.01,0.11 0.01,0.04 0.02,0.08 0.04,0.12 0.02,0.03 0.04,0.06 0.07,0.09 0.02,0.02 0.05,0.04 0.08,0.04zm-0.2 -3.99l0 1.64 0.03 0c0.03,0.01 0.09,0.01 0.16,0.01 0.08,0 0.17,0.01 0.28,0.01 0.1,0 0.19,-0.02 0.29,-0.05 0.1,-0.02 0.2,-0.07 0.29,-0.14 0.09,-0.07 0.16,-0.15 0.22,-0.26 0.06,-0.11 0.09,-0.25 0.09,-0.41 0,-0.16 -0.04,-0.3 -0.1,-0.4 -0.06,-0.1 -0.15,-0.19 -0.26,-0.25 -0.11,-0.06 -0.24,-0.1 -0.4,-0.12 -0.15,-0.02 -0.32,-0.03 -0.51,-0.03l-0.09 0zm6.97 3.99l0.04 0c0.1,0 0.15,-0.05 0.15,-0.15 0,-0.03 0,-0.07 -0.02,-0.11l-0.58 -1.57 -1.13 0 -0.57 1.55c-0.01,0.03 -0.02,0.06 -0.02,0.09 0,0.06 0.02,0.1 0.05,0.14 0.03,0.03 0.06,0.05 0.1,0.05l0.03 0 0 0.06 -0.72 0 0 -0.06 0.03 0c0.06,0 0.11,-0.04 0.17,-0.1 0.05,-0.07 0.1,-0.15 0.13,-0.24l1.48 -3.95 1.45 3.91c0.03,0.09 0.08,0.17 0.13,0.25 0.05,0.08 0.12,0.13 0.21,0.13l0.03 0 0 0.06 -0.96 0 0 -0.06zm-1.48 -2.05l1 0 -0.5 -1.35 -0.5 1.35z"
   id="path15"
   style="fill:#f0cda1;fill-opacity:1;stroke:none" />
   <path
   class="fil3"
   d="M105.26 58.3l0.03 0c0.03,0 0.06,-0.02 0.08,-0.04 0.03,-0.03 0.05,-0.06 0.07,-0.09 0.02,-0.04 0.03,-0.08 0.04,-0.12 0.01,-0.04 0.02,-0.08 0.02,-0.11l0 -3.41 -1.67 3.9 -1.59 -3.69 0 3.2c0,0.03 0,0.07 0.01,0.11 0.01,0.04 0.02,0.08 0.04,0.12 0.02,0.03 0.05,0.06 0.07,0.09 0.03,0.02 0.06,0.04 0.09,0.04l0.04 0 0 0.06 -0.71 0 0 -0.06 0.03 0c0.03,0 0.06,-0.02 0.09,-0.04 0.02,-0.03 0.04,-0.06 0.06,-0.09 0.02,-0.04 0.03,-0.08 0.04,-0.12 0.01,-0.04 0.01,-0.08 0.01,-0.11l0 -3.45c0,-0.03 0,-0.07 -0.01,-0.1 -0.01,-0.04 -0.02,-0.08 -0.04,-0.11 -0.02,-0.04 -0.04,-0.07 -0.06,-0.09 -0.03,-0.03 -0.06,-0.04 -0.09,-0.04l-0.03 0 0 -0.06 0.66 0 1.5 3.54 1.5 -3.54 0.74 0 0 0.06 -0.04 0c-0.03,0 -0.06,0.01 -0.09,0.04 -0.02,0.02 -0.05,0.05 -0.07,0.09 -0.02,0.03 -0.03,0.07 -0.04,0.11 -0.01,0.03 -0.01,0.07 -0.01,0.1l0 3.45c0,0.03 0,0.07 0.01,0.11 0.01,0.04 0.02,0.08 0.04,0.12 0.02,0.03 0.05,0.06 0.07,0.09 0.03,0.02 0.06,0.04 0.09,0.04l0.04 0 0 0.06 -0.92 0 0 -0.06zm3.23 0l0.03 0c0.03,0 0.06,-0.02 0.09,-0.04 0.02,-0.02 0.05,-0.05 0.07,-0.09 0.02,-0.03 0.03,-0.07 0.04,-0.11 0.01,-0.04 0.02,-0.07 0.02,-0.11l0 -3.46c0,-0.03 -0.01,-0.07 -0.02,-0.1 -0.01,-0.04 -0.02,-0.08 -0.04,-0.11 -0.02,-0.04 -0.05,-0.07 -0.07,-0.09 -0.03,-0.03 -0.06,-0.04 -0.09,-0.04l-0.03 0 0 -0.06 2.49 0 0 0.6 -0.07 0c-0.01,-0.1 -0.04,-0.19 -0.11,-0.26 -0.07,-0.08 -0.18,-0.12 -0.33,-0.12l-1.3 0 0 1.64 1.08 0c0.1,0 0.18,-0.03 0.25,-0.09 0.06,-0.06 0.1,-0.13 0.1,-0.21l0.06 0 0 0.81 -0.06 0c0,-0.08 -0.04,-0.15 -0.1,-0.2 -0.07,-0.06 -0.15,-0.09 -0.25,-0.09l-1.08 0 0 1.96 1.42 0c0.08,0 0.15,-0.02 0.21,-0.05 0.06,-0.04 0.11,-0.09 0.16,-0.14 0.04,-0.06 0.07,-0.12 0.09,-0.18 0.02,-0.06 0.03,-0.11 0.03,-0.16l0.06 0 0 0.76 -2.65 0 0 -0.06zm5.5 0l0.03 0 0 0.06 -0.72 0 0 -0.06 0.03 0c0.03,0 0.06,-0.02 0.09,-0.04 0.03,-0.03 0.05,-0.06 0.07,-0.09 0.02,-0.04 0.03,-0.08 0.04,-0.12 0.01,-0.04 0.02,-0.08 0.02,-0.11l0 -3.45c0,-0.03 -0.01,-0.07 -0.01,-0.1 -0.01,-0.04 -0.02,-0.08 -0.04,-0.11 -0.01,-0.04 -0.04,-0.07 -0.07,-0.09 -0.03,-0.03 -0.07,-0.04 -0.11,-0.04l-0.03 0 0 -0.06 0.65 0 2.35 3.7 0 -3.3c0,-0.03 0,-0.07 -0.01,-0.1 -0.01,-0.04 -0.03,-0.08 -0.05,-0.11 -0.02,-0.04 -0.04,-0.07 -0.07,-0.09 -0.02,-0.03 -0.05,-0.04 -0.09,-0.04l-0.03 0 0 -0.06 0.73 0 0 0.06 -0.04 0c-0.03,0 -0.06,0.01 -0.09,0.04 -0.02,0.02 -0.05,0.05 -0.07,0.09 -0.02,0.03 -0.03,0.07 -0.04,0.11 -0.01,0.03 -0.01,0.07 -0.01,0.1l0 3.87 -0.4 0 -2.35 -3.72 0 3.3c0,0.03 0.01,0.07 0.02,0.11 0.01,0.04 0.02,0.08 0.04,0.12 0.02,0.03 0.04,0.06 0.07,0.09 0.02,0.02 0.05,0.04 0.09,0.04zm6.7 0l0.04 0 0 0.06 -0.92 0 0 -0.06 0.03 0c0.03,0 0.06,-0.02 0.09,-0.04 0.03,-0.03 0.05,-0.06 0.07,-0.09 0.02,-0.04 0.03,-0.08 0.04,-0.12 0.01,-0.04 0.01,-0.08 0.01,-0.11l0 -3.61 -0.75 0c-0.07,0 -0.13,0.01 -0.18,0.04 -0.05,0.03 -0.09,0.07 -0.13,0.12 -0.03,0.04 -0.06,0.09 -0.08,0.15 -0.01,0.05 -0.02,0.1 -0.02,0.15l-0.07 0 0 -0.7 2.91 0 0 0.7 -0.06 0c0,-0.05 -0.01,-0.1 -0.03,-0.15 -0.02,-0.06 -0.04,-0.11 -0.08,-0.15 -0.03,-0.05 -0.08,-0.09 -0.13,-0.12 -0.05,-0.03 -0.11,-0.04 -0.18,-0.04l-0.76 0 0 3.61c0,0.03 0,0.07 0.01,0.11 0.01,0.04 0.02,0.08 0.04,0.12 0.02,0.03 0.04,0.06 0.07,0.09 0.02,0.02 0.05,0.04 0.08,0.04z"
   id="path17"
   style="fill:#f0cda1;fill-opacity:1;stroke:none" />
  </g>
 </g>
</svg>