<?xml version="1.0" encoding="UTF-8" standalone="no"?>
<!-- Creator: CorelDRAW 2020 (64-Bit) -->

<svg
   xmlns:dc="http://purl.org/dc/elements/1.1/"
   xmlns:cc="http://creativecommons.org/ns#"
   xmlns:rdf="http://www.w3.org/1999/02/22-rdf-syntax-ns#"
   xmlns:svg="http://www.w3.org/2000/svg"
   xmlns="http://www.w3.org/2000/svg"
   xmlns:sodipodi="http://sodipodi.sourceforge.net/DTD/sodipodi-0.dtd"
   xmlns:inkscape="http://www.inkscape.org/namespaces/inkscape"
   xml:space="preserve"
   width="444.88199"
   height="169.53174"
   version="1.1"
   style="clip-rule:evenodd;fill-rule:evenodd;image-rendering:optimizeQuality;shape-rendering:geometricPrecision;text-rendering:geometricPrecision"
   viewBox="0 0 124.21105 47.360066"
   id="svg21"
   sodipodi:docname="LLLogoTrazColorAj.svg"
   inkscape:version="0.92.3 (2405546, 2018-03-11)"><metadata
   id="metadata25"><rdf:RDF><cc:Work
       rdf:about=""><dc:format>image/svg+xml</dc:format><dc:type
         rdf:resource="http://purl.org/dc/dcmitype/StillImage" /><dc:title></dc:title></cc:Work></rdf:RDF></metadata><sodipodi:namedview
   pagecolor="#ffffff"
   bordercolor="#666666"
   borderopacity="1"
   objecttolerance="10"
   gridtolerance="10"
   guidetolerance="10"
   inkscape:pageopacity="0"
   inkscape:pageshadow="2"
   inkscape:window-width="1920"
   inkscape:window-height="1017"
   id="namedview23"
   showgrid="false"
   inkscape:zoom="0.698"
   inkscape:cx="-41.903548"
   inkscape:cy="85.500098"
   inkscape:window-x="1912"
   inkscape:window-y="-8"
   inkscape:window-maximized="1"
   inkscape:current-layer="Capa_x0020_1" />
 <defs
   id="defs4">
  <style
   type="text/css"
   id="style2">
   <![CDATA[
    .str0 {stroke:#2B2A29;stroke-width:0.12;stroke-miterlimit:22.9256}
    .fil0 {fill:none}
    .fil1 {fill:#E0F0F3}
    .fil2 {fill:#E0F0F3}
    .fil3 {fill:#2B2A29;fill-rule:nonzero}
   ]]>
  </style>
 </defs>
 <g
   id="Capa_x0020_1"
   style="stroke:none"
   transform="translate(-7.7038308,-17.669968)">
  <metadata
   id="CorelCorpID_0Corel-Layer" />
  <rect
   class="fil0 str0"
   x="7.6643038"
   y="17.669968"
   width="124.28139"
   height="47.360065"
   id="rect7"
   style="fill:#107082;fill-opacity:1;stroke:none;stroke-width:0.08577909;stroke-miterlimit:22.92560005" />
  <rect
   class="fil1"
   x="13.96"
   y="22.780001"
   width="112"
   height="1.75"
   id="rect9"
   style="fill:#e0f0f3;stroke:none" />
  <rect
   class="fil2"
   x="13.96"
   y="46.130001"
   width="112"
   height="1.75"
   id="rect11"
   style="fill:#e0f0f3;stroke:none" />
  <path
   class="fil3"
   d="m 23.72,40.08 h 0.08 c 0.09,0 0.16,-0.03 0.23,-0.09 0.07,-0.06 0.13,-0.13 0.18,-0.22 0.05,-0.09 0.08,-0.18 0.11,-0.28 0.03,-0.1 0.04,-0.2 0.04,-0.28 v -8.89 c 0,-0.07 -0.01,-0.16 -0.04,-0.26 -0.03,-0.1 -0.06,-0.19 -0.11,-0.28 C 24.16,29.69 24.1,29.61 24.03,29.55 23.96,29.49 23.89,29.46 23.8,29.46 H 23.72 V 29.3 h 2.39 v 0.16 h -0.09 c -0.09,0 -0.16,0.03 -0.23,0.09 -0.07,0.06 -0.12,0.14 -0.17,0.23 -0.04,0.09 -0.08,0.18 -0.1,0.28 -0.03,0.1 -0.04,0.19 -0.04,0.26 v 9.32 h 3.63 c 0.21,0 0.39,-0.05 0.55,-0.15 0.15,-0.1 0.28,-0.23 0.39,-0.38 0.1,-0.15 0.18,-0.31 0.23,-0.48 0.05,-0.17 0.08,-0.33 0.08,-0.47 h 0.16 v 2.09 h -6.8 z m 14.05,0 h 0.09 c 0.26,0 0.4,-0.12 0.4,-0.36 0,-0.09 -0.02,-0.18 -0.05,-0.28 l -1.5,-4.04 h -2.9 l -1.45,3.97 c -0.03,0.09 -0.05,0.17 -0.05,0.25 0,0.14 0.04,0.26 0.12,0.34 0.08,0.08 0.16,0.12 0.25,0.12 h 0.08 v 0.17 H 30.92 V 40.08 H 31 c 0.15,0 0.29,-0.08 0.43,-0.25 0.13,-0.17 0.25,-0.38 0.34,-0.61 l 3.8,-10.12 3.72,10.02 c 0.07,0.22 0.18,0.44 0.32,0.65 0.14,0.21 0.32,0.31 0.54,0.31 h 0.08 v 0.17 h -2.46 z m -3.8,-5.24 h 2.56 l -1.28,-3.47 z m 7.26,-5.54 h 2.35 v 0.16 H 43.5 c -0.09,0 -0.16,0.03 -0.23,0.09 -0.07,0.06 -0.13,0.14 -0.18,0.23 -0.05,0.09 -0.08,0.18 -0.1,0.28 -0.03,0.1 -0.04,0.19 -0.04,0.26 v 6.56 c 0,0.43 0.05,0.83 0.14,1.2 0.08,0.36 0.23,0.68 0.44,0.94 0.21,0.27 0.49,0.48 0.83,0.62 0.35,0.15 0.77,0.23 1.27,0.23 0.55,0 0.99,-0.09 1.32,-0.27 0.34,-0.17 0.59,-0.4 0.77,-0.69 0.17,-0.28 0.29,-0.6 0.35,-0.95 0.05,-0.35 0.08,-0.7 0.08,-1.05 v -6.59 c 0,-0.07 -0.01,-0.16 -0.03,-0.26 -0.03,-0.1 -0.06,-0.19 -0.11,-0.28 C 47.96,29.69 47.9,29.61 47.83,29.55 47.77,29.49 47.7,29.46 47.62,29.46 H 47.53 V 29.3 h 1.81 v 0.16 h -0.08 c -0.09,0 -0.16,0.03 -0.22,0.09 -0.06,0.06 -0.12,0.14 -0.17,0.23 -0.05,0.09 -0.08,0.18 -0.11,0.28 -0.02,0.1 -0.03,0.19 -0.03,0.26 v 6.54 c 0,0.72 -0.09,1.31 -0.27,1.77 -0.17,0.46 -0.42,0.82 -0.73,1.09 -0.31,0.27 -0.67,0.45 -1.08,0.55 -0.42,0.1 -0.86,0.15 -1.32,0.15 -0.5,0 -0.96,-0.06 -1.39,-0.16 -0.43,-0.11 -0.79,-0.29 -1.1,-0.56 -0.31,-0.26 -0.56,-0.63 -0.73,-1.08 -0.18,-0.46 -0.27,-1.04 -0.27,-1.74 v -6.56 c 0,-0.07 -0.01,-0.16 -0.03,-0.26 -0.02,-0.1 -0.06,-0.19 -0.11,-0.28 -0.05,-0.09 -0.11,-0.17 -0.17,-0.23 -0.07,-0.06 -0.14,-0.09 -0.22,-0.09 h -0.08 z m 11.95,10.78 h 0.08 v 0.17 H 50.92 V 40.08 H 51 c 0.08,0 0.15,-0.03 0.22,-0.09 0.07,-0.07 0.12,-0.15 0.17,-0.24 0.05,-0.09 0.09,-0.18 0.11,-0.29 0.02,-0.1 0.03,-0.2 0.03,-0.29 v -8.85 c 0,-0.07 -0.01,-0.16 -0.03,-0.26 -0.02,-0.1 -0.06,-0.19 -0.11,-0.28 -0.05,-0.09 -0.1,-0.17 -0.17,-0.23 C 51.15,29.49 51.08,29.46 51,29.46 H 50.92 V 29.3 h 2.89 c 1.11,0 1.96,0.21 2.56,0.64 0.61,0.43 0.91,1.07 0.91,1.91 0,0.42 -0.07,0.79 -0.21,1.11 -0.14,0.31 -0.32,0.58 -0.56,0.81 -0.23,0.23 -0.5,0.41 -0.82,0.55 -0.31,0.14 -0.65,0.24 -1,0.3 l 1.19,1.83 c 0.29,0.44 0.58,0.88 0.88,1.3 0.3,0.43 0.6,0.87 0.88,1.32 0.08,0.11 0.17,0.23 0.26,0.35 0.09,0.12 0.19,0.23 0.3,0.33 0.1,0.1 0.22,0.18 0.33,0.24 0.12,0.06 0.24,0.09 0.36,0.09 v 0.17 h -0.72 c -0.44,0 -0.8,-0.11 -1.08,-0.32 C 56.8,39.71 56.57,39.46 56.38,39.17 55.88,38.44 55.39,37.7 54.9,36.95 54.4,36.2 53.91,35.45 53.43,34.72 53.31,34.71 53.18,34.7 53.04,34.68 52.9,34.67 52.77,34.65 52.65,34.62 v 4.55 c 0,0.09 0.01,0.19 0.03,0.29 0.02,0.11 0.06,0.2 0.11,0.29 0.05,0.09 0.1,0.17 0.16,0.24 0.06,0.06 0.14,0.09 0.23,0.09 z M 52.65,29.86 v 4.22 h 0.08 c 0.09,0.01 0.23,0.02 0.42,0.02 0.2,0.01 0.44,0.01 0.73,0.01 0.23,0 0.47,-0.04 0.73,-0.11 0.26,-0.07 0.51,-0.19 0.73,-0.36 0.23,-0.18 0.42,-0.4 0.57,-0.68 0.15,-0.27 0.22,-0.62 0.22,-1.04 0,-0.42 -0.08,-0.77 -0.24,-1.03 C 55.73,30.62 55.51,30.41 55.23,30.26 54.95,30.1 54.61,30 54.21,29.94 53.81,29.89 53.37,29.86 52.9,29.86 Z m 13.57,10.22 h 0.09 c 0.26,0 0.4,-0.12 0.4,-0.36 0,-0.09 -0.02,-0.18 -0.05,-0.28 l -1.5,-4.04 h -2.9 l -1.45,3.97 c -0.03,0.09 -0.05,0.17 -0.05,0.25 0,0.14 0.04,0.26 0.12,0.34 0.08,0.08 0.16,0.12 0.25,0.12 h 0.08 v 0.17 h -1.84 v -0.17 h 0.08 c 0.15,0 0.29,-0.08 0.43,-0.25 0.13,-0.17 0.25,-0.38 0.34,-0.61 l 3.8,-10.12 3.72,10.02 c 0.07,0.22 0.18,0.44 0.32,0.65 0.14,0.21 0.32,0.31 0.54,0.31 h 0.08 v 0.17 h -2.46 z m -3.8,-5.24 h 2.56 L 63.7,31.37 Z m 11.57,5.24 h 0.09 c 0.08,0 0.16,-0.03 0.23,-0.09 0.06,-0.06 0.12,-0.13 0.17,-0.22 0.05,-0.09 0.09,-0.18 0.12,-0.28 0.03,-0.1 0.04,-0.2 0.04,-0.28 v -8.89 c 0,-0.07 -0.01,-0.16 -0.04,-0.26 -0.03,-0.1 -0.07,-0.19 -0.12,-0.28 -0.05,-0.09 -0.11,-0.17 -0.17,-0.23 -0.07,-0.06 -0.15,-0.09 -0.23,-0.09 H 73.99 V 29.3 h 2.39 v 0.16 H 76.3 c -0.09,0 -0.17,0.03 -0.23,0.09 -0.07,0.06 -0.12,0.14 -0.17,0.23 -0.04,0.09 -0.08,0.18 -0.11,0.28 -0.02,0.1 -0.04,0.19 -0.04,0.26 v 9.32 h 3.64 c 0.21,0 0.39,-0.05 0.54,-0.15 0.16,-0.1 0.29,-0.23 0.4,-0.38 0.1,-0.15 0.18,-0.31 0.23,-0.48 0.05,-0.17 0.07,-0.33 0.07,-0.47 h 0.17 v 2.09 H 73.99 Z M 81.78,29.3 h 2.35 v 0.16 h -0.08 c -0.08,0 -0.15,0.03 -0.21,0.09 -0.07,0.06 -0.13,0.14 -0.17,0.22 -0.04,0.08 -0.08,0.18 -0.11,0.28 -0.03,0.11 -0.04,0.2 -0.04,0.27 v 8.85 c 0,0.09 0.01,0.19 0.03,0.29 0.03,0.11 0.06,0.2 0.11,0.29 0.05,0.09 0.11,0.17 0.17,0.24 0.06,0.06 0.13,0.09 0.22,0.09 h 0.08 v 0.17 h -2.35 v -0.17 h 0.08 c 0.09,0 0.17,-0.03 0.23,-0.09 0.07,-0.06 0.13,-0.13 0.18,-0.23 0.05,-0.09 0.08,-0.19 0.1,-0.3 0.03,-0.1 0.04,-0.2 0.04,-0.29 v -8.85 c 0,-0.07 -0.01,-0.16 -0.04,-0.26 -0.02,-0.1 -0.05,-0.19 -0.1,-0.28 -0.05,-0.09 -0.11,-0.17 -0.18,-0.23 -0.06,-0.06 -0.14,-0.09 -0.23,-0.09 H 81.78 Z M 88,40.08 h 0.08 v 0.17 h -2.34 v -0.17 h 0.09 c 0.07,0 0.15,-0.03 0.21,-0.09 0.07,-0.07 0.13,-0.15 0.18,-0.24 0.05,-0.09 0.08,-0.18 0.11,-0.29 0.02,-0.1 0.03,-0.2 0.03,-0.29 v -8.85 c 0,-0.07 -0.01,-0.16 -0.03,-0.26 -0.03,-0.1 -0.06,-0.19 -0.11,-0.28 -0.05,-0.09 -0.11,-0.17 -0.18,-0.23 -0.06,-0.06 -0.14,-0.09 -0.21,-0.09 H 85.74 V 29.3 h 2.89 c 1.11,0 1.96,0.21 2.57,0.64 0.6,0.43 0.9,1.07 0.9,1.91 0,0.42 -0.07,0.79 -0.21,1.11 -0.13,0.31 -0.32,0.58 -0.55,0.81 -0.23,0.23 -0.51,0.41 -0.82,0.55 -0.32,0.14 -0.65,0.24 -1.01,0.3 l 1.2,1.83 c 0.29,0.44 0.58,0.88 0.88,1.3 0.3,0.43 0.59,0.87 0.88,1.32 0.07,0.11 0.16,0.23 0.25,0.35 0.1,0.12 0.2,0.23 0.3,0.33 0.11,0.1 0.22,0.18 0.33,0.24 0.12,0.06 0.24,0.09 0.36,0.09 v 0.17 H 93 c -0.44,0 -0.81,-0.11 -1.09,-0.32 -0.28,-0.22 -0.52,-0.47 -0.7,-0.76 -0.5,-0.73 -1,-1.47 -1.49,-2.22 C 89.23,36.2 88.74,35.45 88.25,34.72 88.13,34.71 88,34.7 87.86,34.68 87.72,34.67 87.59,34.65 87.47,34.62 v 4.55 c 0,0.09 0.01,0.19 0.03,0.29 0.03,0.11 0.06,0.2 0.11,0.29 0.05,0.09 0.11,0.17 0.17,0.24 0.06,0.06 0.13,0.09 0.22,0.09 z M 87.47,29.86 v 4.22 h 0.08 c 0.09,0.01 0.23,0.02 0.43,0.02 0.19,0.01 0.43,0.01 0.72,0.01 0.23,0 0.48,-0.04 0.74,-0.11 0.26,-0.07 0.5,-0.19 0.73,-0.36 0.22,-0.18 0.41,-0.4 0.56,-0.68 0.15,-0.27 0.23,-0.62 0.23,-1.04 0,-0.42 -0.08,-0.77 -0.24,-1.03 C 90.56,30.62 90.33,30.41 90.05,30.26 89.77,30.1 89.43,30 89.03,29.94 88.63,29.89 88.2,29.86 87.72,29.86 Z m 12.83,-0.73 c 0.86,0 1.64,0.15 2.33,0.46 0.68,0.3 1.27,0.71 1.75,1.22 0.48,0.52 0.85,1.12 1.11,1.8 0.26,0.68 0.39,1.39 0.39,2.13 0,0.83 -0.15,1.59 -0.46,2.29 -0.3,0.7 -0.72,1.3 -1.25,1.79 -0.53,0.5 -1.15,0.89 -1.85,1.17 -0.7,0.29 -1.45,0.43 -2.25,0.43 -0.85,0 -1.62,-0.16 -2.3,-0.47 -0.68,-0.31 -1.26,-0.72 -1.73,-1.23 -0.47,-0.51 -0.83,-1.09 -1.08,-1.76 -0.26,-0.66 -0.39,-1.35 -0.39,-2.07 0,-0.71 0.13,-1.41 0.39,-2.1 0.25,-0.69 0.62,-1.31 1.12,-1.85 0.49,-0.54 1.09,-0.98 1.8,-1.31 0.71,-0.33 1.51,-0.5 2.42,-0.5 z m -0.01,10.71 c 0.75,-0.04 1.4,-0.21 1.96,-0.51 0.56,-0.3 1.03,-0.69 1.4,-1.16 0.38,-0.47 0.66,-0.99 0.84,-1.55 0.19,-0.57 0.28,-1.13 0.28,-1.68 0,-0.61 -0.11,-1.22 -0.34,-1.84 -0.22,-0.62 -0.53,-1.18 -0.94,-1.69 -0.41,-0.5 -0.9,-0.91 -1.48,-1.23 -0.57,-0.31 -1.21,-0.47 -1.92,-0.47 -0.68,0 -1.3,0.15 -1.84,0.46 -0.55,0.3 -1.01,0.69 -1.39,1.17 -0.38,0.47 -0.68,1 -0.87,1.59 -0.2,0.59 -0.3,1.16 -0.3,1.73 0,0.61 0.11,1.22 0.35,1.83 0.23,0.62 0.55,1.17 0.96,1.67 0.41,0.5 0.89,0.9 1.46,1.21 0.56,0.31 1.17,0.47 1.83,0.47 z m -1.42,-11.01 2.36,-1.78 0.43,0.75 -2.74,1.13 z m 10.21,11.25 h 0.09 v 0.17 h -1.85 v -0.17 h 0.09 c 0.07,0 0.15,-0.03 0.22,-0.09 0.07,-0.07 0.13,-0.15 0.17,-0.24 0.05,-0.09 0.08,-0.18 0.11,-0.29 0.03,-0.1 0.04,-0.2 0.04,-0.29 v -8.85 c 0,-0.07 0,-0.16 -0.02,-0.26 -0.02,-0.1 -0.05,-0.19 -0.09,-0.28 -0.05,-0.09 -0.11,-0.17 -0.19,-0.23 -0.07,-0.06 -0.17,-0.09 -0.28,-0.09 h -0.08 V 29.3 h 1.68 l 6.02,9.49 v -8.47 c 0,-0.07 -0.01,-0.16 -0.04,-0.26 -0.03,-0.1 -0.07,-0.19 -0.12,-0.28 -0.05,-0.09 -0.1,-0.17 -0.17,-0.23 -0.07,-0.06 -0.14,-0.09 -0.23,-0.09 h -0.09 V 29.3 h 1.86 v 0.16 h -0.08 c -0.09,0 -0.17,0.03 -0.23,0.09 -0.07,0.06 -0.13,0.14 -0.18,0.23 -0.05,0.09 -0.08,0.18 -0.1,0.28 -0.03,0.1 -0.04,0.19 -0.04,0.26 v 9.93 h -1.03 l -6.01,-9.53 v 8.45 c 0,0.09 0.02,0.19 0.04,0.29 0.02,0.11 0.06,0.2 0.11,0.29 0.05,0.09 0.1,0.17 0.17,0.24 0.07,0.06 0.14,0.09 0.23,0.09 z"
   id="path13"
   style="fill:#f0cda1;fill-opacity:1;fill-rule:nonzero;stroke:none"
   inkscape:connector-curvature="0" />
  <g
   id="_2327649822000"
   style="stroke:none">
   <path
   class="fil3"
   d="m 20.71,56.11 h 0.92 v 0.06 H 21.6 c -0.03,0 -0.06,0.01 -0.09,0.04 -0.02,0.02 -0.05,0.05 -0.06,0.09 -0.02,0.03 -0.03,0.07 -0.05,0.11 -0.01,0.03 -0.01,0.07 -0.01,0.1 v 1.73 c -0.08,0.03 -0.17,0.06 -0.27,0.08 -0.1,0.02 -0.2,0.04 -0.31,0.06 -0.11,0.01 -0.22,0.02 -0.33,0.03 -0.11,0.01 -0.21,0.02 -0.31,0.02 -0.39,0 -0.73,-0.07 -1.01,-0.2 -0.29,-0.13 -0.53,-0.3 -0.72,-0.51 -0.19,-0.21 -0.33,-0.44 -0.43,-0.71 -0.09,-0.26 -0.14,-0.52 -0.14,-0.79 0,-0.27 0.05,-0.54 0.14,-0.8 0.1,-0.26 0.24,-0.5 0.43,-0.7 0.19,-0.21 0.43,-0.38 0.73,-0.51 0.29,-0.12 0.63,-0.19 1.03,-0.19 0.16,0 0.3,0.02 0.42,0.04 0.13,0.03 0.25,0.05 0.35,0.07 0.05,0.02 0.1,0.03 0.14,0.04 0.04,0.01 0.08,0.02 0.11,0.02 h 0.06 v 0.68 H 21.21 C 21.19,54.74 21.14,54.63 21.06,54.55 20.99,54.47 20.9,54.4 20.8,54.36 c -0.1,-0.04 -0.2,-0.07 -0.31,-0.09 -0.11,-0.01 -0.22,-0.02 -0.31,-0.02 -0.33,0 -0.61,0.06 -0.84,0.17 -0.24,0.12 -0.43,0.26 -0.59,0.44 -0.15,0.19 -0.26,0.39 -0.33,0.62 -0.08,0.22 -0.11,0.45 -0.11,0.67 0,0.25 0.04,0.5 0.14,0.74 0.09,0.25 0.23,0.47 0.4,0.66 0.17,0.19 0.38,0.35 0.63,0.46 0.24,0.12 0.51,0.18 0.81,0.18 0.08,0 0.18,-0.01 0.3,-0.03 0.12,-0.02 0.24,-0.06 0.37,-0.13 v -1.52 c 0,-0.03 -0.01,-0.07 -0.02,-0.1 -0.01,-0.04 -0.02,-0.08 -0.04,-0.11 -0.02,-0.04 -0.04,-0.07 -0.07,-0.09 -0.02,-0.03 -0.05,-0.04 -0.09,-0.04 h -0.03 z m 3.15,2.19 h 0.03 c 0.04,0 0.07,-0.02 0.09,-0.04 0.03,-0.02 0.05,-0.05 0.07,-0.09 0.02,-0.03 0.04,-0.07 0.05,-0.11 0.01,-0.04 0.01,-0.07 0.01,-0.11 v -3.46 c 0,-0.03 0,-0.07 -0.01,-0.1 -0.01,-0.04 -0.03,-0.08 -0.05,-0.11 -0.02,-0.04 -0.04,-0.07 -0.07,-0.09 -0.02,-0.03 -0.05,-0.04 -0.09,-0.04 h -0.03 v -0.06 h 2.49 v 0.6 H 26.29 C 26.28,54.59 26.24,54.5 26.17,54.43 26.1,54.35 26,54.31 25.85,54.31 h -1.3 v 1.64 h 1.07 c 0.1,0 0.18,-0.03 0.25,-0.09 0.07,-0.06 0.1,-0.13 0.1,-0.21 h 0.07 v 0.81 h -0.07 c 0,-0.08 -0.03,-0.15 -0.1,-0.2 -0.06,-0.06 -0.14,-0.09 -0.25,-0.09 h -1.07 v 1.96 h 1.42 c 0.08,0 0.15,-0.02 0.21,-0.05 0.06,-0.04 0.11,-0.09 0.15,-0.14 0.04,-0.06 0.07,-0.12 0.09,-0.18 0.02,-0.06 0.03,-0.11 0.03,-0.16 h 0.07 v 0.76 h -2.66 z m 7.45,-1.09 c 0,0.22 -0.05,0.4 -0.13,0.56 -0.09,0.15 -0.2,0.28 -0.34,0.37 -0.14,0.1 -0.29,0.16 -0.46,0.21 -0.17,0.04 -0.34,0.06 -0.51,0.06 -0.17,0 -0.32,-0.02 -0.45,-0.05 -0.12,-0.03 -0.24,-0.07 -0.34,-0.1 -0.07,-0.02 -0.13,-0.04 -0.19,-0.05 -0.05,-0.02 -0.11,-0.02 -0.17,-0.02 v -0.74 h 0.07 c 0,0.16 0.04,0.29 0.12,0.39 0.09,0.1 0.19,0.17 0.3,0.22 0.11,0.05 0.22,0.09 0.34,0.1 0.11,0.02 0.19,0.03 0.24,0.03 0.19,0 0.35,-0.03 0.48,-0.09 0.14,-0.05 0.25,-0.12 0.34,-0.21 0.08,-0.09 0.15,-0.19 0.19,-0.29 0.04,-0.11 0.06,-0.22 0.06,-0.33 0,-0.15 -0.03,-0.27 -0.09,-0.36 -0.06,-0.1 -0.14,-0.19 -0.24,-0.26 C 30.44,56.58 30.32,56.52 30.2,56.46 30.07,56.41 29.95,56.36 29.82,56.31 29.67,56.25 29.53,56.19 29.38,56.13 29.24,56.07 29.11,56 29,55.91 c -0.11,-0.09 -0.2,-0.19 -0.27,-0.32 -0.07,-0.12 -0.1,-0.27 -0.1,-0.45 0,-0.19 0.03,-0.36 0.11,-0.5 0.07,-0.14 0.17,-0.25 0.29,-0.34 0.12,-0.1 0.26,-0.16 0.42,-0.21 0.16,-0.04 0.32,-0.07 0.48,-0.07 0.12,0 0.22,0.01 0.32,0.03 0.1,0.01 0.19,0.03 0.29,0.05 0.07,0.02 0.14,0.03 0.21,0.04 0.07,0.01 0.13,0.02 0.2,0.02 v 0.67 h -0.07 c 0,-0.23 -0.09,-0.38 -0.26,-0.46 -0.17,-0.08 -0.4,-0.12 -0.7,-0.12 -0.18,0 -0.32,0.03 -0.43,0.09 -0.11,0.06 -0.2,0.13 -0.26,0.21 -0.07,0.09 -0.11,0.18 -0.13,0.27 -0.03,0.1 -0.04,0.19 -0.04,0.26 0,0.12 0.03,0.22 0.08,0.31 0.05,0.09 0.13,0.16 0.22,0.23 0.09,0.06 0.19,0.12 0.31,0.17 0.12,0.05 0.25,0.1 0.38,0.15 0.14,0.06 0.29,0.12 0.44,0.18 0.16,0.07 0.29,0.15 0.41,0.24 0.12,0.1 0.22,0.21 0.29,0.35 0.08,0.14 0.12,0.31 0.12,0.5 z m 3.87,1.09 h 0.03 v 0.06 H 34.29 V 58.3 h 0.03 c 0.04,0 0.07,-0.02 0.09,-0.04 0.03,-0.03 0.05,-0.06 0.07,-0.09 0.02,-0.04 0.03,-0.08 0.04,-0.12 0.01,-0.04 0.02,-0.08 0.02,-0.11 v -3.61 h -0.76 c -0.06,0 -0.12,0.01 -0.18,0.04 -0.05,0.03 -0.09,0.07 -0.13,0.12 -0.03,0.04 -0.06,0.09 -0.07,0.15 -0.02,0.05 -0.03,0.1 -0.03,0.15 h -0.06 v -0.7 h 2.9 v 0.7 h -0.06 c 0,-0.05 -0.01,-0.1 -0.03,-0.15 C 36.1,54.58 36.08,54.53 36.04,54.49 36.01,54.44 35.97,54.4 35.91,54.37 35.86,54.34 35.8,54.33 35.73,54.33 h -0.76 v 3.61 c 0,0.03 0,0.07 0.01,0.11 0.01,0.04 0.03,0.08 0.04,0.12 0.02,0.03 0.05,0.06 0.07,0.09 0.02,0.02 0.05,0.04 0.09,0.04 z m 3.1,-4.21 h 0.92 v 0.06 h -0.04 c -0.03,0 -0.05,0.01 -0.08,0.04 -0.03,0.02 -0.05,0.05 -0.06,0.08 -0.02,0.03 -0.04,0.07 -0.05,0.11 -0.01,0.04 -0.01,0.08 -0.01,0.11 v 3.45 c 0,0.03 0,0.07 0.01,0.11 0.01,0.04 0.02,0.08 0.04,0.12 0.02,0.03 0.04,0.06 0.07,0.09 0.02,0.02 0.05,0.04 0.08,0.04 h 0.04 v 0.06 H 38.28 V 58.3 h 0.03 c 0.03,0 0.06,-0.02 0.09,-0.04 0.03,-0.02 0.05,-0.05 0.07,-0.09 0.02,-0.04 0.03,-0.08 0.04,-0.12 0.01,-0.04 0.01,-0.08 0.01,-0.11 v -3.45 c 0,-0.03 0,-0.07 -0.01,-0.1 -0.01,-0.04 -0.02,-0.08 -0.04,-0.11 -0.02,-0.04 -0.04,-0.07 -0.07,-0.09 -0.03,-0.03 -0.06,-0.04 -0.09,-0.04 h -0.03 z m 5.41,-0.07 c 0.34,0 0.64,0.06 0.91,0.18 0.26,0.12 0.49,0.28 0.68,0.48 0.19,0.2 0.33,0.43 0.43,0.7 0.1,0.26 0.15,0.54 0.15,0.83 0,0.32 -0.06,0.62 -0.17,0.89 -0.12,0.28 -0.29,0.51 -0.49,0.7 -0.21,0.2 -0.45,0.35 -0.72,0.46 -0.28,0.11 -0.57,0.17 -0.88,0.17 -0.33,0 -0.63,-0.07 -0.9,-0.19 -0.26,-0.12 -0.49,-0.28 -0.67,-0.48 -0.18,-0.19 -0.33,-0.42 -0.43,-0.68 -0.09,-0.26 -0.14,-0.53 -0.14,-0.81 0,-0.28 0.05,-0.55 0.14,-0.82 0.1,-0.27 0.25,-0.51 0.44,-0.72 0.19,-0.21 0.43,-0.38 0.7,-0.51 0.28,-0.13 0.6,-0.2 0.95,-0.2 z m 0,4.18 c 0.29,-0.01 0.54,-0.08 0.76,-0.2 0.22,-0.12 0.4,-0.27 0.55,-0.45 0.14,-0.19 0.25,-0.39 0.32,-0.61 0.07,-0.22 0.11,-0.44 0.11,-0.65 0,-0.24 -0.04,-0.48 -0.13,-0.72 -0.09,-0.24 -0.21,-0.46 -0.37,-0.66 -0.16,-0.19 -0.35,-0.35 -0.57,-0.48 -0.23,-0.12 -0.48,-0.18 -0.75,-0.18 -0.27,0 -0.51,0.06 -0.72,0.18 -0.21,0.12 -0.39,0.27 -0.54,0.45 -0.15,0.19 -0.27,0.4 -0.34,0.63 -0.08,0.22 -0.12,0.45 -0.12,0.67 0,0.24 0.04,0.47 0.14,0.71 0.09,0.24 0.21,0.46 0.37,0.65 0.16,0.2 0.35,0.36 0.57,0.48 0.22,0.12 0.46,0.18 0.72,0.18 z m -0.56,-4.29 0.92,-0.7 0.17,0.3 -1.07,0.44 z m 6.7,0.18 h 0.91 v 0.06 h -0.03 c -0.03,0 -0.06,0.01 -0.08,0.04 -0.03,0.02 -0.05,0.05 -0.07,0.08 -0.01,0.03 -0.03,0.07 -0.04,0.11 -0.01,0.04 -0.01,0.08 -0.01,0.11 v 3.45 c 0,0.03 0,0.07 0.01,0.11 0.01,0.04 0.02,0.08 0.04,0.12 0.02,0.03 0.04,0.06 0.07,0.09 0.02,0.02 0.05,0.04 0.08,0.04 h 0.03 v 0.06 H 49.83 V 58.3 h 0.03 c 0.03,0 0.06,-0.02 0.09,-0.04 0.02,-0.02 0.05,-0.05 0.07,-0.09 0.02,-0.04 0.03,-0.08 0.04,-0.12 0.01,-0.04 0.01,-0.08 0.01,-0.11 v -3.45 c 0,-0.03 0,-0.07 -0.01,-0.1 C 50.05,54.35 50.04,54.31 50.02,54.28 50,54.24 49.97,54.21 49.95,54.19 49.92,54.16 49.89,54.15 49.86,54.15 h -0.03 z m 7.38,4.21 h 0.03 c 0.11,0 0.16,-0.05 0.16,-0.15 0,-0.03 -0.01,-0.07 -0.02,-0.11 L 56.8,56.47 h -1.14 l -0.56,1.55 c -0.01,0.03 -0.02,0.06 -0.02,0.09 0,0.06 0.02,0.1 0.05,0.14 0.03,0.03 0.06,0.05 0.09,0.05 h 0.04 v 0.06 H 54.54 V 58.3 h 0.03 c 0.06,0 0.11,-0.04 0.17,-0.1 0.05,-0.07 0.09,-0.15 0.13,-0.24 l 1.48,-3.95 1.45,3.91 c 0.03,0.09 0.07,0.17 0.13,0.25 0.05,0.08 0.12,0.13 0.21,0.13 h 0.03 v 0.06 h -0.96 z m -1.48,-2.05 h 1 l -0.5,-1.35 z m 7.13,0.96 c 0,0.22 -0.04,0.4 -0.13,0.56 -0.08,0.15 -0.2,0.28 -0.33,0.37 -0.14,0.1 -0.29,0.16 -0.46,0.21 -0.17,0.04 -0.34,0.06 -0.51,0.06 -0.17,0 -0.32,-0.02 -0.45,-0.05 -0.13,-0.03 -0.24,-0.07 -0.34,-0.1 -0.07,-0.02 -0.14,-0.04 -0.19,-0.05 -0.06,-0.02 -0.11,-0.02 -0.17,-0.02 v -0.74 h 0.06 c 0,0.16 0.05,0.29 0.13,0.39 0.08,0.1 0.18,0.17 0.3,0.22 0.11,0.05 0.22,0.09 0.33,0.1 0.12,0.02 0.2,0.03 0.25,0.03 0.19,0 0.35,-0.03 0.48,-0.09 0.14,-0.05 0.25,-0.12 0.33,-0.21 0.09,-0.09 0.15,-0.19 0.19,-0.29 0.05,-0.11 0.07,-0.22 0.07,-0.33 0,-0.15 -0.03,-0.27 -0.09,-0.36 -0.07,-0.1 -0.14,-0.19 -0.24,-0.26 -0.1,-0.07 -0.21,-0.13 -0.33,-0.19 -0.13,-0.05 -0.26,-0.1 -0.39,-0.15 -0.14,-0.06 -0.29,-0.12 -0.43,-0.18 -0.14,-0.06 -0.27,-0.13 -0.38,-0.22 -0.11,-0.09 -0.2,-0.19 -0.27,-0.32 -0.07,-0.12 -0.11,-0.27 -0.11,-0.45 0,-0.19 0.04,-0.36 0.11,-0.5 0.08,-0.14 0.17,-0.25 0.3,-0.34 0.12,-0.1 0.26,-0.16 0.42,-0.21 0.16,-0.04 0.32,-0.07 0.48,-0.07 0.11,0 0.22,0.01 0.32,0.03 0.1,0.01 0.19,0.03 0.28,0.05 0.08,0.02 0.15,0.03 0.22,0.04 0.07,0.01 0.13,0.02 0.2,0.02 v 0.67 h -0.07 c -0.01,-0.23 -0.1,-0.38 -0.26,-0.46 -0.17,-0.08 -0.41,-0.12 -0.71,-0.12 -0.17,0 -0.31,0.03 -0.42,0.09 -0.11,0.06 -0.2,0.13 -0.26,0.21 -0.07,0.09 -0.11,0.18 -0.14,0.27 -0.02,0.1 -0.03,0.19 -0.03,0.26 0,0.12 0.02,0.22 0.08,0.31 0.05,0.09 0.12,0.16 0.22,0.23 0.09,0.06 0.19,0.12 0.31,0.17 0.12,0.05 0.24,0.1 0.37,0.15 0.15,0.06 0.3,0.12 0.45,0.18 0.15,0.07 0.29,0.15 0.41,0.24 0.12,0.1 0.21,0.21 0.29,0.35 0.07,0.14 0.11,0.31 0.11,0.5 z m 4.86,0 c 0,0.22 -0.05,0.4 -0.13,0.56 -0.09,0.15 -0.2,0.28 -0.34,0.37 -0.13,0.1 -0.29,0.16 -0.46,0.21 -0.17,0.04 -0.34,0.06 -0.51,0.06 -0.17,0 -0.32,-0.02 -0.44,-0.05 -0.13,-0.03 -0.25,-0.07 -0.35,-0.1 -0.07,-0.02 -0.13,-0.04 -0.19,-0.05 -0.05,-0.02 -0.11,-0.02 -0.17,-0.02 v -0.74 h 0.07 c 0,0.16 0.04,0.29 0.13,0.39 0.08,0.1 0.18,0.17 0.29,0.22 0.11,0.05 0.23,0.09 0.34,0.1 0.11,0.02 0.19,0.03 0.25,0.03 0.18,0 0.34,-0.03 0.48,-0.09 0.13,-0.05 0.24,-0.12 0.33,-0.21 0.08,-0.09 0.15,-0.19 0.19,-0.29 0.04,-0.11 0.06,-0.22 0.06,-0.33 0,-0.15 -0.03,-0.27 -0.09,-0.36 -0.06,-0.1 -0.14,-0.19 -0.24,-0.26 -0.09,-0.07 -0.2,-0.13 -0.33,-0.19 -0.12,-0.05 -0.25,-0.1 -0.38,-0.15 -0.15,-0.06 -0.29,-0.12 -0.43,-0.18 -0.15,-0.06 -0.27,-0.13 -0.39,-0.22 -0.11,-0.09 -0.2,-0.19 -0.27,-0.32 -0.07,-0.12 -0.1,-0.27 -0.1,-0.45 0,-0.19 0.03,-0.36 0.11,-0.5 0.07,-0.14 0.17,-0.25 0.29,-0.34 0.13,-0.1 0.27,-0.16 0.42,-0.21 0.16,-0.04 0.32,-0.07 0.49,-0.07 0.11,0 0.21,0.01 0.31,0.03 0.1,0.01 0.2,0.03 0.29,0.05 0.07,0.02 0.14,0.03 0.21,0.04 0.07,0.01 0.14,0.02 0.2,0.02 v 0.67 H 67.3 c -0.01,-0.23 -0.1,-0.38 -0.27,-0.46 -0.17,-0.08 -0.4,-0.12 -0.7,-0.12 -0.17,0 -0.32,0.03 -0.43,0.09 -0.11,0.06 -0.19,0.13 -0.26,0.21 -0.07,0.09 -0.11,0.18 -0.13,0.27 -0.03,0.1 -0.04,0.19 -0.04,0.26 0,0.12 0.03,0.22 0.08,0.31 0.06,0.09 0.13,0.16 0.22,0.23 0.09,0.06 0.2,0.12 0.32,0.17 0.11,0.05 0.24,0.1 0.37,0.15 0.15,0.06 0.29,0.12 0.45,0.18 0.15,0.07 0.28,0.15 0.4,0.24 0.12,0.1 0.22,0.21 0.29,0.35 0.08,0.14 0.12,0.31 0.12,0.5 z m 2.23,1.09 h 0.03 c 0.04,0 0.07,-0.02 0.09,-0.04 0.03,-0.02 0.05,-0.05 0.07,-0.09 0.02,-0.03 0.04,-0.07 0.05,-0.11 0.01,-0.04 0.01,-0.07 0.01,-0.11 v -3.46 c 0,-0.03 0,-0.07 -0.01,-0.1 -0.01,-0.04 -0.03,-0.08 -0.05,-0.11 -0.02,-0.04 -0.04,-0.07 -0.07,-0.09 -0.02,-0.03 -0.05,-0.04 -0.09,-0.04 h -0.03 v -0.06 h 2.49 v 0.6 h -0.06 c -0.01,-0.1 -0.05,-0.19 -0.12,-0.26 -0.07,-0.08 -0.18,-0.12 -0.32,-0.12 h -1.3 v 1.64 h 1.07 c 0.1,0 0.18,-0.03 0.25,-0.09 0.07,-0.06 0.1,-0.13 0.1,-0.21 h 0.07 v 0.81 h -0.07 c 0,-0.08 -0.03,-0.15 -0.1,-0.2 -0.06,-0.06 -0.14,-0.09 -0.25,-0.09 h -1.07 v 1.96 h 1.41 c 0.09,0 0.16,-0.02 0.22,-0.05 0.06,-0.04 0.11,-0.09 0.15,-0.14 0.04,-0.06 0.07,-0.12 0.09,-0.18 0.02,-0.06 0.03,-0.11 0.03,-0.16 h 0.06 v 0.76 h -2.65 z m 7.45,-1.09 c 0,0.22 -0.05,0.4 -0.13,0.56 -0.09,0.15 -0.2,0.28 -0.34,0.37 -0.14,0.1 -0.29,0.16 -0.46,0.21 -0.17,0.04 -0.34,0.06 -0.51,0.06 -0.17,0 -0.32,-0.02 -0.45,-0.05 -0.12,-0.03 -0.24,-0.07 -0.34,-0.1 -0.07,-0.02 -0.13,-0.04 -0.19,-0.05 -0.06,-0.02 -0.11,-0.02 -0.17,-0.02 v -0.74 h 0.07 c 0,0.16 0.04,0.29 0.12,0.39 0.09,0.1 0.19,0.17 0.3,0.22 0.11,0.05 0.22,0.09 0.34,0.1 0.11,0.02 0.19,0.03 0.24,0.03 0.19,0 0.35,-0.03 0.48,-0.09 0.14,-0.05 0.25,-0.12 0.33,-0.21 0.09,-0.09 0.16,-0.19 0.2,-0.29 0.04,-0.11 0.06,-0.22 0.06,-0.33 0,-0.15 -0.03,-0.27 -0.09,-0.36 -0.06,-0.1 -0.14,-0.19 -0.24,-0.26 -0.1,-0.07 -0.21,-0.13 -0.33,-0.19 -0.13,-0.05 -0.25,-0.1 -0.38,-0.15 -0.15,-0.06 -0.3,-0.12 -0.44,-0.18 -0.14,-0.06 -0.27,-0.13 -0.38,-0.22 -0.11,-0.09 -0.2,-0.19 -0.27,-0.32 -0.07,-0.12 -0.1,-0.27 -0.1,-0.45 0,-0.19 0.03,-0.36 0.11,-0.5 0.07,-0.14 0.17,-0.25 0.29,-0.34 0.12,-0.1 0.26,-0.16 0.42,-0.21 0.16,-0.04 0.32,-0.07 0.48,-0.07 0.11,0 0.22,0.01 0.32,0.03 0.1,0.01 0.19,0.03 0.28,0.05 0.08,0.02 0.15,0.03 0.22,0.04 0.07,0.01 0.13,0.02 0.2,0.02 v 0.67 h -0.07 c 0,-0.23 -0.09,-0.38 -0.26,-0.46 -0.17,-0.08 -0.4,-0.12 -0.7,-0.12 -0.18,0 -0.32,0.03 -0.43,0.09 -0.11,0.06 -0.2,0.13 -0.26,0.21 -0.07,0.09 -0.11,0.18 -0.14,0.27 -0.02,0.1 -0.03,0.19 -0.03,0.26 0,0.12 0.03,0.22 0.08,0.31 0.05,0.09 0.13,0.16 0.22,0.23 0.09,0.06 0.19,0.12 0.31,0.17 0.12,0.05 0.25,0.1 0.38,0.15 0.14,0.06 0.29,0.12 0.44,0.18 0.15,0.07 0.29,0.15 0.41,0.24 0.12,0.1 0.22,0.21 0.29,0.35 0.08,0.14 0.12,0.31 0.12,0.5 z m 4.85,0 c 0,0.22 -0.04,0.4 -0.13,0.56 -0.09,0.15 -0.2,0.28 -0.33,0.37 -0.14,0.1 -0.29,0.16 -0.46,0.21 -0.18,0.04 -0.35,0.06 -0.51,0.06 -0.18,0 -0.33,-0.02 -0.45,-0.05 -0.13,-0.03 -0.24,-0.07 -0.35,-0.1 -0.07,-0.02 -0.13,-0.04 -0.18,-0.05 -0.06,-0.02 -0.12,-0.02 -0.17,-0.02 v -0.74 h 0.06 c 0,0.16 0.04,0.29 0.13,0.39 0.08,0.1 0.18,0.17 0.29,0.22 0.12,0.05 0.23,0.09 0.34,0.1 0.11,0.02 0.2,0.03 0.25,0.03 0.18,0 0.34,-0.03 0.48,-0.09 0.13,-0.05 0.24,-0.12 0.33,-0.21 0.09,-0.09 0.15,-0.19 0.19,-0.29 0.04,-0.11 0.06,-0.22 0.06,-0.33 0,-0.15 -0.03,-0.27 -0.09,-0.36 -0.06,-0.1 -0.14,-0.19 -0.23,-0.26 -0.1,-0.07 -0.21,-0.13 -0.34,-0.19 -0.12,-0.05 -0.25,-0.1 -0.38,-0.15 -0.15,-0.06 -0.29,-0.12 -0.43,-0.18 -0.14,-0.06 -0.27,-0.13 -0.38,-0.22 -0.12,-0.09 -0.21,-0.19 -0.28,-0.32 -0.07,-0.12 -0.1,-0.27 -0.1,-0.45 0,-0.19 0.04,-0.36 0.11,-0.5 0.07,-0.14 0.17,-0.25 0.29,-0.34 0.13,-0.1 0.27,-0.16 0.43,-0.21 0.15,-0.04 0.31,-0.07 0.48,-0.07 0.11,0 0.22,0.01 0.31,0.03 0.1,0.01 0.2,0.03 0.29,0.05 0.07,0.02 0.14,0.03 0.21,0.04 0.07,0.01 0.14,0.02 0.2,0.02 v 0.67 h -0.06 c -0.01,-0.23 -0.1,-0.38 -0.27,-0.46 -0.17,-0.08 -0.4,-0.12 -0.7,-0.12 -0.17,0 -0.31,0.03 -0.42,0.09 -0.11,0.06 -0.2,0.13 -0.27,0.21 -0.06,0.09 -0.11,0.18 -0.13,0.27 -0.02,0.1 -0.04,0.19 -0.04,0.26 0,0.12 0.03,0.22 0.08,0.31 0.06,0.09 0.13,0.16 0.22,0.23 0.09,0.06 0.2,0.12 0.32,0.17 0.12,0.05 0.24,0.1 0.37,0.15 0.15,0.06 0.3,0.12 0.45,0.18 0.15,0.07 0.29,0.15 0.4,0.24 0.12,0.1 0.22,0.21 0.3,0.35 0.07,0.14 0.11,0.31 0.11,0.5 z m 4.41,-3.19 c 0.34,0 0.64,0.06 0.91,0.18 0.27,0.12 0.5,0.28 0.68,0.48 0.19,0.2 0.34,0.43 0.44,0.7 0.1,0.26 0.15,0.54 0.15,0.83 0,0.32 -0.06,0.62 -0.18,0.89 -0.12,0.28 -0.28,0.51 -0.49,0.7 -0.2,0.2 -0.44,0.35 -0.72,0.46 -0.27,0.11 -0.57,0.17 -0.88,0.17 -0.33,0 -0.63,-0.07 -0.89,-0.19 -0.27,-0.12 -0.49,-0.28 -0.68,-0.48 -0.18,-0.19 -0.32,-0.42 -0.42,-0.68 -0.1,-0.26 -0.15,-0.53 -0.15,-0.81 0,-0.28 0.05,-0.55 0.15,-0.82 0.1,-0.27 0.25,-0.51 0.44,-0.72 0.19,-0.21 0.42,-0.38 0.7,-0.51 0.28,-0.13 0.59,-0.2 0.94,-0.2 z m 0,4.18 c 0.29,-0.01 0.55,-0.08 0.76,-0.2 0.22,-0.12 0.4,-0.27 0.55,-0.45 0.15,-0.19 0.26,-0.39 0.33,-0.61 0.07,-0.22 0.11,-0.44 0.11,-0.65 0,-0.24 -0.05,-0.48 -0.13,-0.72 -0.09,-0.24 -0.21,-0.46 -0.37,-0.66 -0.16,-0.19 -0.35,-0.35 -0.58,-0.48 -0.22,-0.12 -0.47,-0.18 -0.75,-0.18 -0.26,0 -0.5,0.06 -0.72,0.18 -0.21,0.12 -0.39,0.27 -0.54,0.45 -0.15,0.19 -0.26,0.4 -0.34,0.63 -0.08,0.22 -0.11,0.45 -0.11,0.67 0,0.24 0.04,0.47 0.13,0.71 0.09,0.24 0.22,0.46 0.38,0.65 0.16,0.2 0.35,0.36 0.57,0.48 0.21,0.12 0.45,0.18 0.71,0.18 z m 5.31,0.1 h 0.04 v 0.06 H 91.09 V 58.3 h 0.03 c 0.04,0 0.06,-0.02 0.09,-0.04 0.02,-0.03 0.05,-0.06 0.07,-0.09 0.02,-0.04 0.03,-0.08 0.04,-0.12 0.01,-0.04 0.01,-0.08 0.01,-0.11 v -3.45 c 0,-0.03 0,-0.07 -0.01,-0.1 -0.01,-0.04 -0.02,-0.08 -0.04,-0.11 -0.02,-0.04 -0.05,-0.07 -0.07,-0.09 -0.03,-0.03 -0.05,-0.04 -0.09,-0.04 h -0.03 v -0.06 h 1.13 c 0.43,0 0.76,0.08 1,0.25 0.23,0.17 0.35,0.42 0.35,0.74 0,0.17 -0.03,0.31 -0.08,0.44 -0.05,0.12 -0.13,0.22 -0.22,0.31 -0.09,0.09 -0.19,0.16 -0.32,0.22 -0.12,0.05 -0.25,0.09 -0.39,0.12 l 0.47,0.71 c 0.11,0.17 0.22,0.34 0.34,0.51 0.12,0.16 0.23,0.33 0.34,0.51 0.03,0.04 0.07,0.09 0.1,0.14 0.04,0.04 0.08,0.09 0.12,0.13 0.04,0.04 0.09,0.07 0.13,0.09 0.05,0.02 0.09,0.04 0.14,0.04 v 0.06 h -0.28 c -0.17,0 -0.31,-0.04 -0.42,-0.13 -0.11,-0.08 -0.2,-0.18 -0.28,-0.29 -0.19,-0.29 -0.39,-0.57 -0.58,-0.87 -0.19,-0.29 -0.38,-0.58 -0.57,-0.87 -0.05,0 -0.1,0 -0.15,-0.01 -0.06,-0.01 -0.11,-0.02 -0.15,-0.02 v 1.77 c 0,0.03 0,0.07 0.01,0.11 0.01,0.04 0.02,0.08 0.04,0.12 0.02,0.03 0.04,0.06 0.07,0.09 0.02,0.02 0.05,0.04 0.08,0.04 z m -0.2,-3.99 v 1.64 h 0.03 c 0.03,0.01 0.09,0.01 0.16,0.01 0.08,0 0.17,0.01 0.28,0.01 0.1,0 0.19,-0.02 0.29,-0.05 0.1,-0.02 0.2,-0.07 0.29,-0.14 0.09,-0.07 0.16,-0.15 0.22,-0.26 0.06,-0.11 0.09,-0.25 0.09,-0.41 0,-0.16 -0.04,-0.3 -0.1,-0.4 -0.06,-0.1 -0.15,-0.19 -0.26,-0.25 -0.11,-0.06 -0.24,-0.1 -0.4,-0.12 -0.15,-0.02 -0.32,-0.03 -0.51,-0.03 z m 6.97,3.99 h 0.04 c 0.1,0 0.15,-0.05 0.15,-0.15 0,-0.03 0,-0.07 -0.02,-0.11 L 98.33,56.47 H 97.2 l -0.57,1.55 c -0.01,0.03 -0.02,0.06 -0.02,0.09 0,0.06 0.02,0.1 0.05,0.14 0.03,0.03 0.06,0.05 0.1,0.05 h 0.03 v 0.06 H 96.07 V 58.3 h 0.03 c 0.06,0 0.11,-0.04 0.17,-0.1 0.05,-0.07 0.1,-0.15 0.13,-0.24 l 1.48,-3.95 1.45,3.91 c 0.03,0.09 0.08,0.17 0.13,0.25 0.05,0.08 0.12,0.13 0.21,0.13 h 0.03 v 0.06 h -0.96 z m -1.48,-2.05 h 1 l -0.5,-1.35 z"
   id="path15"
   style="fill:#f0cda1;fill-opacity:1;fill-rule:nonzero;stroke:none"
   inkscape:connector-curvature="0" />
   <path
   class="fil3"
   d="m 105.26,58.3 h 0.03 c 0.03,0 0.06,-0.02 0.08,-0.04 0.03,-0.03 0.05,-0.06 0.07,-0.09 0.02,-0.04 0.03,-0.08 0.04,-0.12 0.01,-0.04 0.02,-0.08 0.02,-0.11 v -3.41 l -1.67,3.9 -1.59,-3.69 v 3.2 c 0,0.03 0,0.07 0.01,0.11 0.01,0.04 0.02,0.08 0.04,0.12 0.02,0.03 0.05,0.06 0.07,0.09 0.03,0.02 0.06,0.04 0.09,0.04 h 0.04 v 0.06 h -0.71 V 58.3 h 0.03 c 0.03,0 0.06,-0.02 0.09,-0.04 0.02,-0.03 0.04,-0.06 0.06,-0.09 0.02,-0.04 0.03,-0.08 0.04,-0.12 0.01,-0.04 0.01,-0.08 0.01,-0.11 v -3.45 c 0,-0.03 0,-0.07 -0.01,-0.1 -0.01,-0.04 -0.02,-0.08 -0.04,-0.11 -0.02,-0.04 -0.04,-0.07 -0.06,-0.09 -0.03,-0.03 -0.06,-0.04 -0.09,-0.04 h -0.03 v -0.06 h 0.66 l 1.5,3.54 1.5,-3.54 h 0.74 v 0.06 h -0.04 c -0.03,0 -0.06,0.01 -0.09,0.04 -0.02,0.02 -0.05,0.05 -0.07,0.09 -0.02,0.03 -0.03,0.07 -0.04,0.11 -0.01,0.03 -0.01,0.07 -0.01,0.1 v 3.45 c 0,0.03 0,0.07 0.01,0.11 0.01,0.04 0.02,0.08 0.04,0.12 0.02,0.03 0.05,0.06 0.07,0.09 0.03,0.02 0.06,0.04 0.09,0.04 h 0.04 v 0.06 h -0.92 z m 3.23,0 h 0.03 c 0.03,0 0.06,-0.02 0.09,-0.04 0.02,-0.02 0.05,-0.05 0.07,-0.09 0.02,-0.03 0.03,-0.07 0.04,-0.11 0.01,-0.04 0.02,-0.07 0.02,-0.11 v -3.46 c 0,-0.03 -0.01,-0.07 -0.02,-0.1 -0.01,-0.04 -0.02,-0.08 -0.04,-0.11 -0.02,-0.04 -0.05,-0.07 -0.07,-0.09 -0.03,-0.03 -0.06,-0.04 -0.09,-0.04 h -0.03 v -0.06 h 2.49 v 0.6 h -0.07 c -0.01,-0.1 -0.04,-0.19 -0.11,-0.26 -0.07,-0.08 -0.18,-0.12 -0.33,-0.12 h -1.3 v 1.64 h 1.08 c 0.1,0 0.18,-0.03 0.25,-0.09 0.06,-0.06 0.1,-0.13 0.1,-0.21 h 0.06 v 0.81 h -0.06 c 0,-0.08 -0.04,-0.15 -0.1,-0.2 -0.07,-0.06 -0.15,-0.09 -0.25,-0.09 h -1.08 v 1.96 h 1.42 c 0.08,0 0.15,-0.02 0.21,-0.05 0.06,-0.04 0.11,-0.09 0.16,-0.14 0.04,-0.06 0.07,-0.12 0.09,-0.18 0.02,-0.06 0.03,-0.11 0.03,-0.16 h 0.06 v 0.76 h -2.65 z m 5.5,0 h 0.03 v 0.06 H 113.3 V 58.3 h 0.03 c 0.03,0 0.06,-0.02 0.09,-0.04 0.03,-0.03 0.05,-0.06 0.07,-0.09 0.02,-0.04 0.03,-0.08 0.04,-0.12 0.01,-0.04 0.02,-0.08 0.02,-0.11 v -3.45 c 0,-0.03 -0.01,-0.07 -0.01,-0.1 -0.01,-0.04 -0.02,-0.08 -0.04,-0.11 -0.01,-0.04 -0.04,-0.07 -0.07,-0.09 -0.03,-0.03 -0.07,-0.04 -0.11,-0.04 h -0.03 v -0.06 h 0.65 l 2.35,3.7 v -3.3 c 0,-0.03 0,-0.07 -0.01,-0.1 -0.01,-0.04 -0.03,-0.08 -0.05,-0.11 -0.02,-0.04 -0.04,-0.07 -0.07,-0.09 -0.02,-0.03 -0.05,-0.04 -0.09,-0.04 h -0.03 v -0.06 h 0.73 v 0.06 h -0.04 c -0.03,0 -0.06,0.01 -0.09,0.04 -0.02,0.02 -0.05,0.05 -0.07,0.09 -0.02,0.03 -0.03,0.07 -0.04,0.11 -0.01,0.03 -0.01,0.07 -0.01,0.1 v 3.87 h -0.4 l -2.35,-3.72 v 3.3 c 0,0.03 0.01,0.07 0.02,0.11 0.01,0.04 0.02,0.08 0.04,0.12 0.02,0.03 0.04,0.06 0.07,0.09 0.02,0.02 0.05,0.04 0.09,0.04 z m 6.7,0 h 0.04 v 0.06 h -0.92 V 58.3 h 0.03 c 0.03,0 0.06,-0.02 0.09,-0.04 0.03,-0.03 0.05,-0.06 0.07,-0.09 0.02,-0.04 0.03,-0.08 0.04,-0.12 0.01,-0.04 0.01,-0.08 0.01,-0.11 v -3.61 h -0.75 c -0.07,0 -0.13,0.01 -0.18,0.04 -0.05,0.03 -0.09,0.07 -0.13,0.12 -0.03,0.04 -0.06,0.09 -0.08,0.15 -0.01,0.05 -0.02,0.1 -0.02,0.15 h -0.07 v -0.7 h 2.91 v 0.7 h -0.06 c 0,-0.05 -0.01,-0.1 -0.03,-0.15 -0.02,-0.06 -0.04,-0.11 -0.08,-0.15 -0.03,-0.05 -0.08,-0.09 -0.13,-0.12 -0.05,-0.03 -0.11,-0.04 -0.18,-0.04 h -0.76 v 3.61 c 0,0.03 0,0.07 0.01,0.11 0.01,0.04 0.02,0.08 0.04,0.12 0.02,0.03 0.04,0.06 0.07,0.09 0.02,0.02 0.05,0.04 0.08,0.04 z"
   id="path17"
   style="fill:#f0cda1;fill-opacity:1;fill-rule:nonzero;stroke:none"
   inkscape:connector-curvature="0" />
  </g>
 </g>
</svg>