<?xml version="1.0" encoding="UTF-8"?>
<!DOCTYPE svg PUBLIC "-//W3C//DTD SVG 1.1//EN" "http://www.w3.org/Graphics/SVG/1.1/DTD/svg11.dtd">
<!-- Creator: CorelDRAW 2020 (64-Bit) -->
<svg xmlns="http://www.w3.org/2000/svg" xml:space="preserve" width="469px" height="469px" version="1.1" style="shape-rendering:geometricPrecision; text-rendering:geometricPrecision; image-rendering:optimizeQuality; fill-rule:evenodd; clip-rule:evenodd"
viewBox="0 0 57.61 57.61"
 xmlns:xlink="http://www.w3.org/1999/xlink"
 xmlns:xodm="http://www.corel.com/coreldraw/odm/2003">
 <defs>
  <style type="text/css">
   <![CDATA[
    .fil4 {fill:none;fill-rule:nonzero}
    .fil2 {fill:#64B2C1;fill-rule:nonzero}
    .fil1 {fill:#64B2C1;fill-rule:nonzero}
    .fil3 {fill:#F0CDA1;fill-rule:nonzero}
    .fil0 {fill:#F0CDA1;fill-rule:nonzero}
   ]]>
  </style>
 </defs>
 <g id="Capa_x0020_1">
  <metadata id="CorelCorpID_0Corel-Layer"/>
  <path class="fil0" d="M37.18 35.89l0 0c-0.92,-0.22 -1.82,0.3 -2.1,1.2l0 0c-0.34,1.08 -1.57,1.55 -2.53,1.02l4.82 10.2 1.54 -5.1 4.36 0.77 -4.17 -8.87c-0.4,0.62 -1.14,0.96 -1.92,0.78l0 0z"/>
  <path class="fil1" d="M39.97 24.51c0.58,0.65 0.4,1.67 -0.41,2.07l0 0c-0.61,0.31 -0.89,1.05 -0.61,1.7l0 0c0.34,0.81 -0.19,1.7 -1.09,1.79l0 0c-0.68,0.1 -1.17,0.68 -1.14,1.4l0 0c0.03,0.86 -0.77,1.54 -1.64,1.32l0 0c-0.68,-0.15 -1.36,0.22 -1.54,0.9l0 0c-0.28,0.84 -1.27,1.18 -2.01,0.68 -0.56,-0.37 -1.33,-0.25 -1.76,0.31l0 0c-0.53,0.71 -1.58,0.68 -2.11,0l0 0c-0.4,-0.59 -1.17,-0.71 -1.76,-0.34l0 0c-0.74,0.46 -1.73,0.09 -1.98,-0.74 -0.18,-0.65 -0.86,-1.05 -1.54,-0.9l0 0c-0.87,0.19 -1.67,-0.49 -1.61,-1.36l0 0c0.03,-0.71 -0.46,-1.33 -1.14,-1.39l0 0c-0.87,-0.12 -1.39,-1.05 -1.05,-1.85l0 0c0.27,-0.62 0.03,-1.36 -0.59,-1.7l0 0c-0.8,-0.37 -0.96,-1.43 -0.37,-2.07 0.49,-0.5 0.49,-1.27 0.03,-1.8l0 0c-0.59,-0.65 -0.4,-1.67 0.37,-2.07l0 0c0.62,-0.31 0.9,-1.05 0.65,-1.67l0 0c-0.34,-0.83 0.18,-1.73 1.05,-1.82l0 0c0.68,-0.09 1.21,-0.68 1.17,-1.36l0 0c-0.06,-0.9 0.78,-1.58 1.61,-1.36l0 0c0.68,0.18 1.36,-0.22 1.58,-0.9l0 0c0.25,-0.83 1.27,-1.17 1.98,-0.68l0 0c0.58,0.37 1.36,0.25 1.79,-0.31 0.52,-0.71 1.58,-0.68 2.1,0.03l0 0c0.4,0.56 1.18,0.68 1.76,0.31l0 0c0.74,-0.46 1.73,-0.09 1.98,0.75l0 0c0.19,0.64 0.87,1.05 1.55,0.89l0 0c0.86,-0.18 1.67,0.5 1.6,1.39l0 0c-0.06,0.68 0.47,1.3 1.15,1.36l0 0c0.86,0.13 1.39,1.05 1.02,1.86l0 0c-0.28,0.62 0,1.36 0.62,1.7l0 0c0.77,0.4 0.95,1.42 0.34,2.07l0 0c-0.47,0.49 -0.5,1.27 0,1.79zm2.44 0.22c-0.59,-0.62 -0.59,-1.58 0,-2.2l0 0c0.74,-0.77 0.52,-2.04 -0.44,-2.53l0 0c-0.74,-0.37 -1.05,-1.3 -0.71,-2.07l0 0c0.44,-0.96 -0.21,-2.1 -1.26,-2.23l0 0c-0.84,-0.09 -1.46,-0.83 -1.39,-1.7l0 0c0.06,-1.05 -0.93,-1.88 -1.98,-1.64l0 0c-0.81,0.19 -1.64,-0.31 -1.89,-1.11l0 0c-0.28,-1.05 -1.48,-1.48 -2.41,-0.9l0 0c-0.71,0.44 -1.64,0.28 -2.13,-0.4l0 0c-0.65,-0.86 -1.92,-0.86 -2.57,-0.03l0 0c-0.52,0.68 -1.45,0.84 -2.16,0.37 -0.9,-0.58 -2.1,-0.15 -2.41,0.87l0 0c-0.28,0.8 -1.11,1.27 -1.92,1.08l0 0c-1.05,-0.28 -2.04,0.56 -1.98,1.61l0 0c0.03,0.86 -0.58,1.57 -1.42,1.7l0 0c-1.08,0.09 -1.73,1.2 -1.3,2.19l0 0c0.31,0.77 0,1.67 -0.77,2.04l0 0c-0.96,0.5 -1.2,1.76 -0.46,2.54l0 0c0.58,0.61 0.55,1.57 -0.03,2.19l0 0c-0.71,0.77 -0.53,2.04 0.43,2.54l0 0c0.74,0.37 1.08,1.29 0.74,2.07l0 0c-0.43,0.95 0.22,2.1 1.27,2.22l0 0c0.83,0.09 1.45,0.84 1.39,1.7l0 0c-0.06,1.05 0.9,1.89 1.95,1.64l0 0c0.83,-0.19 1.67,0.31 1.88,1.11l0 0c0.31,1.05 1.52,1.49 2.41,0.9l0 0c0.71,-0.43 1.67,-0.28 2.17,0.4l0 0c0.61,0.87 1.91,0.9 2.56,0.03l0 0c0.5,-0.68 1.45,-0.83 2.17,-0.37l0 0c0.89,0.59 2.1,0.19 2.41,-0.86l0 0c0.24,-0.81 1.08,-1.27 1.91,-1.09l0 0c1.02,0.28 2.01,-0.55 1.98,-1.6l0 0c-0.06,-0.87 0.59,-1.58 1.42,-1.67l0 0c1.05,-0.13 1.7,-1.24 1.3,-2.23l0 0c-0.34,-0.77 0,-1.67 0.77,-2.07l0 0c0.96,-0.46 1.18,-1.73 0.47,-2.5l0 0 0 0z"/>
  <path class="fil2" d="M24.82 37.99l0 0c-0.99,0.62 -2.32,0.12 -2.63,-0.99l0 0c-0.28,-0.9 -1.17,-1.45 -2.1,-1.24l0 0c-0.62,0.16 -1.24,-0.06 -1.64,-0.49l-4.11 8.71 4.36 -0.77 1.55 5.1 4.97 -10.54c-0.12,0.06 -0.25,0.12 -0.4,0.22l0 0z"/>
  <path class="fil3" d="M36.87 21.05l-1.05 -1.3 -10.01 8.07 -3.83 -4.24 -1.24 1.12 4.36 4.82c0.15,0.15 0.37,0.25 0.62,0.25 0.18,0 0.37,-0.07 0.52,-0.16l0 0 10.63 -8.56 0 0 0 0z"/>
  <path class="fil4" d="M57.61 28.81c0,15.92 -12.88,28.8 -28.8,28.8 -15.92,0 -28.81,-12.88 -28.81,-28.8 0,-15.92 12.89,-28.81 28.81,-28.81 15.92,0 28.8,12.89 28.8,28.81z"/>
 </g>
</svg>
