<?xml version="1.0" encoding="UTF-8"?>
<!DOCTYPE svg PUBLIC "-//W3C//DTD SVG 1.1//EN" "http://www.w3.org/Graphics/SVG/1.1/DTD/svg11.dtd">
<!-- Creator: CorelDRAW 2020 (64-Bit) -->
<svg xmlns="http://www.w3.org/2000/svg" xml:space="preserve" width="469px" height="469px" version="1.1" style="shape-rendering:geometricPrecision; text-rendering:geometricPrecision; image-rendering:optimizeQuality; fill-rule:evenodd; clip-rule:evenodd"
viewBox="0 0 12610.7 12610.7"
 xmlns:xlink="http://www.w3.org/1999/xlink"
 xmlns:xodm="http://www.corel.com/coreldraw/odm/2003">
 <defs>
  <style type="text/css">
   <![CDATA[
    .fil2 {fill:none;fill-rule:nonzero}
    .fil0 {fill:#64B2C1;fill-rule:nonzero}
    .fil1 {fill:#F0CDA1;fill-rule:nonzero}
   ]]>
  </style>
 </defs>
 <g id="Capa_x0020_1">
  <metadata id="CorelCorpID_0Corel-Layer"/>
  <path class="fil0" d="M9694.99 6485.26l-1373.86 -2375.76c0,0 -1109.94,-155.95 -2015.88,53.99 -905.81,-209.94 -2015.71,-53.99 -2015.71,-53.99l-1373.86 2375.76c0,0 221.98,294.05 557.97,611.96l-66.03 78.07c-132.06,143.91 -114.01,359.88 29.9,491.94 144.1,125.83 366.08,107.97 491.94,-36.13l156.15 -173.81c125.83,-144.1 114.01,-366.08 -30.09,-491.94 -126.06,-108.2 -299.87,-114.01 -425.92,-24.09 -192.08,-192.08 -354.04,-365.89 -443.96,-473.86l1241.77 -2147.74c234.02,-24.08 827.93,-72.06 1415.99,-12.04 -60.02,23.89 -114.01,53.98 -167.99,83.89 -588.06,335.98 -839.98,1283.93 -707.89,1517.95 221.98,377.94 779.76,89.93 1133.8,-576.01 228.02,-41.95 497.92,-132.06 497.92,-132.06l2351.7 2069.89c144.1,126.05 156.14,341.99 30.09,485.9 -126.05,137.88 -341.99,155.96 -485.9,29.9l-1619.93 -1427.84 -143.91 167.99 1559.91 1373.86c137.87,120.02 149.91,329.96 29.9,468.05 -126.06,137.87 -335.99,155.95 -473.87,29.9l-1559.87 -1373.86 -143.9 168 1349.74 1188c126.05,114.01 138.09,317.91 24.08,443.96 -114.01,131.87 -312.09,143.91 -443.96,29.9l-1349.93 -1187.78 -143.91 168 1073.77 941.94c120.02,107.97 132.06,293.82 24.09,413.87 -107.97,126.05 -294.05,138.09 -414.03,30.09l6.01 -12.05c126.02,-138.09 107.94,-354.03 -29.9,-480.09 -138.1,-119.82 -354.04,-107.97 -480.09,30.1l-155.96 180.03c-119.82,137.87 -107.97,353.85 30.1,479.9 143.9,120.02 353.84,107.97 479.89,-30.09 215.98,186.04 539.89,168 731.94,-47.98 72.07,-83.89 114.01,-185.85 126.05,-287.82 221.99,161.96 533.89,131.87 713.93,-78.07 83.88,-95.93 125.83,-209.94 131.86,-329.95 221.98,114.01 497.95,66.03 671.98,-126.05 107.97,-125.83 149.92,-282.01 132.06,-431.92 191.89,30.09 389.98,-29.9 527.88,-185.85 203.93,-228.02 186.04,-570.02 -35.94,-779.96 348.03,-329.95 581.87,-636.04 581.87,-636.04l0 0 0 -0.06z"/>
  <path class="fil0" d="M4811.57 8081.1l-275.97 312.09c-132.05,149.92 -366.08,168 -516.02,35.94 -155.95,-138.09 -168,-371.93 -35.94,-522.03l275.97 -311.91c137.87,-155.95 365.89,-167.99 521.84,-35.93 149.91,137.87 167.99,365.89 29.9,521.84l0.19 0 0.03 0z"/>
  <path class="fil0" d="M5543.35 8669.16l-275.97 311.9c-125.82,149.92 -353.84,161.96 -503.98,35.94 -149.91,-131.86 -161.96,-359.88 -29.9,-509.99l275.97 -311.9c132.05,-149.92 354.03,-161.96 503.98,-29.9 149.92,125.83 161.96,353.84 29.9,503.98l0 -0.03z"/>
  <polygon class="fil1" points="1481.83,6041.33 2519.67,6641.21 4217.47,3689.63 3185.64,3095.72 "/>
  <polygon class="fil1" points="11128.84,6041.33 10091,6641.21 8387.16,3689.63 9425.03,3095.72 "/>
  <path class="fil2" d="M12610.7 6305.25c0,3479.66 -2825.79,6305.45 -6305.45,6305.45 -3479.49,0 -6305.25,-2825.79 -6305.25,-6305.45 0,-3479.49 2825.79,-6305.25 6305.25,-6305.25 3479.66,0 6305.45,2825.79 6305.45,6305.25z"/>
 </g>
</svg>
