<?xml version="1.0" encoding="UTF-8"?>
<!DOCTYPE svg PUBLIC "-//W3C//DTD SVG 1.1//EN" "http://www.w3.org/Graphics/SVG/1.1/DTD/svg11.dtd">
<!-- Creator: CorelDRAW 2020 (64-Bit) -->
<svg xmlns="http://www.w3.org/2000/svg" xml:space="preserve" width="469px" height="469px" version="1.1" style="shape-rendering:geometricPrecision; text-rendering:geometricPrecision; image-rendering:optimizeQuality; fill-rule:evenodd; clip-rule:evenodd"
viewBox="0 0 145.85 145.85"
 xmlns:xlink="http://www.w3.org/1999/xlink"
 xmlns:xodm="http://www.corel.com/coreldraw/odm/2003">
 <defs>
  <style type="text/css">
   <![CDATA[
    .fil2 {fill:none;fill-rule:nonzero}
    .fil1 {fill:#64B2C1;fill-rule:nonzero}
    .fil0 {fill:#F0CDA1;fill-rule:nonzero}
   ]]>
  </style>
 </defs>
 <g id="Capa_x0020_1">
  <metadata id="CorelCorpID_0Corel-Layer"/>
  <path class="fil0" d="M93.19 81.97c1.54,-2.82 2.76,-6.22 3.59,-10.01l5.78 0c-2.12,4.17 -5.39,7.63 -9.37,10.01l0 0zm-34.76 -10.01l5.77 0c0.84,3.79 2.12,7.19 3.66,10.01 -4.04,-2.38 -7.31,-5.84 -9.43,-10.01l0 0zm9.43 -32.58c-1.54,2.82 -2.82,6.22 -3.66,9.94l-5.77 0c2.12,-4.1 5.39,-7.57 9.43,-9.94l0 0zm34.7 9.94l-5.78 0c-0.83,-3.72 -2.05,-7.12 -3.59,-9.94 3.98,2.37 7.25,5.84 9.37,9.94l0 0zm-4.88 5.9l6.99 0c0.45,1.73 0.64,3.59 0.64,5.45 0,1.86 -0.19,3.66 -0.64,5.46l-6.99 0c0.19,-1.8 0.26,-3.6 0.26,-5.46 0,-1.86 -0.07,-3.72 -0.26,-5.45zm-14.24 10.91l0 -10.91 8.34 0c0.19,1.73 0.32,3.53 0.32,5.45 0,1.86 -0.13,3.72 -0.32,5.46l-8.34 0zm0 18.4l0 -12.57 7.25 0c-1.54,6.22 -4.3,10.71 -7.25,12.57zm-5.83 -12.57l0 12.57c-2.95,-1.86 -5.71,-6.35 -7.32,-12.57l7.32 0zm0 -35.21l0 12.57 -7.32 0c1.61,-6.22 4.37,-10.65 7.32,-12.57zm13.08 12.57l-7.25 0 0 -12.57c2.95,1.92 5.71,6.35 7.25,12.57zm-21.74 11.35c0,-1.92 0.06,-3.72 0.32,-5.45l8.34 0 0 10.91 -8.34 0c-0.26,-1.74 -0.32,-3.6 -0.32,-5.46zm-13.28 0c0,-1.86 0.26,-3.72 0.64,-5.45l6.99 0c-0.13,1.73 -0.25,3.59 -0.25,5.45 0,1.86 0.12,3.66 0.25,5.46l-6.99 0c-0.38,-1.8 -0.64,-3.6 -0.64,-5.46zm24.82 -30.72c-16.93,0 -30.66,13.79 -30.66,30.72 0,16.94 13.73,30.66 30.66,30.66 16.93,0 30.72,-13.72 30.72,-30.66 0,-16.93 -13.79,-30.72 -30.72,-30.72z"/>
  <path class="fil1" d="M40.86 95.05l-4.69 0c-0.83,0 -1.54,0.71 -1.54,1.54l0 15.71c0,0.84 0.71,1.54 1.54,1.54l4.69 0c0.83,0 1.53,-0.7 1.53,-1.54l0 -15.71c0,-0.83 -0.7,-1.54 -1.53,-1.54z"/>
  <path class="fil1" d="M110.12 102.94l-0.45 -1.03c-0.96,-2.43 -4.16,-2.05 -6.73,-1.66 0,0 -20.27,4.36 -26.23,4.36l-14.3 -1.22c-0.39,0 -0.65,-0.32 -0.65,-0.71 0.07,-0.38 0.39,-0.64 0.77,-0.64l11.36 0.96c2.5,0.26 4.81,-1.41 5.13,-3.84 0.38,-2.63 -1.48,-4.94 -4.04,-5.13l-5.9 -0.52c-0.39,-0.06 -0.71,-0.13 -1.1,-0.19l-6.6 -2.05c-2.25,-0.64 -4.62,-0.64 -6.86,0l-7.96 3.27c-0.77,0.32 -1.22,1.02 -1.22,1.79l0 15.59c0,1.09 0.84,1.92 1.93,1.92l1.8 0 22.57 1.93c3.85,0.32 7.63,-0.07 11.29,-1.22l25.46 -7.89c1.54,-0.51 2.31,-2.24 1.73,-3.72l0 0z"/>
  <path class="fil2" d="M145.85 72.92c0,40.28 -32.65,72.93 -72.93,72.93 -40.27,0 -72.92,-32.65 -72.92,-72.93 0,-40.27 32.65,-72.92 72.92,-72.92 40.28,0 72.93,32.65 72.93,72.92z"/>
 </g>
</svg>
