<?xml version="1.0" encoding="UTF-8"?>
<!DOCTYPE svg PUBLIC "-//W3C//DTD SVG 1.1//EN" "http://www.w3.org/Graphics/SVG/1.1/DTD/svg11.dtd">
<!-- Creator: CorelDRAW 2020 (64-Bit) -->
<svg xmlns="http://www.w3.org/2000/svg" xml:space="preserve" width="469px" height="469px" version="1.1" style="shape-rendering:geometricPrecision; text-rendering:geometricPrecision; image-rendering:optimizeQuality; fill-rule:evenodd; clip-rule:evenodd"
viewBox="0 0 116.5 116.5"
 xmlns:xlink="http://www.w3.org/1999/xlink"
 xmlns:xodm="http://www.corel.com/coreldraw/odm/2003">
 <defs>
  <style type="text/css">
   <![CDATA[
    .fil0 {fill:none;fill-rule:nonzero}
    .fil1 {fill:#3A495B;fill-rule:nonzero}
    .fil3 {fill:#64B2C1;fill-rule:nonzero}
    .fil2 {fill:#F0CDA1;fill-rule:nonzero}
   ]]>
  </style>
 </defs>
 <g id="Capa_x0020_1">
  <metadata id="CorelCorpID_0Corel-Layer"/>
  <path class="fil0" d="M116.5 58.25c0,32.18 -26.07,58.25 -58.25,58.25 -32.19,0 -58.25,-26.07 -58.25,-58.25 0,-32.19 26.06,-58.25 58.25,-58.25 32.18,0 58.25,26.06 58.25,58.25z"/>
  <path class="fil1" d="M59.3 43.43l0 -2.09c0,-0.58 -0.47,-1.05 -1.05,-1.05 -0.58,0 -1.05,0.47 -1.05,1.05l0 2.09c0,0.58 0.47,1.05 1.05,1.05 0.58,0 1.05,-0.47 1.05,-1.05z"/>
  <path class="fil1" d="M57.2 58.1l0 2.09c0,0.58 0.47,1.05 1.05,1.05 0.58,0 1.05,-0.47 1.05,-1.05l0 -2.09c0,-0.58 -0.47,-1.05 -1.05,-1.05 -0.58,0 -1.05,0.47 -1.05,1.05z"/>
  <path class="fil1" d="M65.58 49.72c-0.58,0 -1.05,0.47 -1.05,1.04 0,0.58 0.47,1.05 1.05,1.05l2.09 0c0.58,0 1.05,-0.47 1.05,-1.05 0,-0.57 -0.47,-1.04 -1.05,-1.04l-2.09 0z"/>
  <path class="fil1" d="M48.82 49.72c-0.58,0 -1.05,0.47 -1.05,1.04 0,0.58 0.47,1.05 1.05,1.05l2.1 0c0.58,0 1.04,-0.47 1.04,-1.05 0,-0.57 -0.46,-1.04 -1.04,-1.04l-2.1 0z"/>
  <path class="fil2" d="M74.73 33.92c-0.41,-0.41 -1.08,-0.41 -1.49,0l-2.26 2.26c-3.41,-2.98 -7.86,-4.79 -12.73,-4.79 -4.31,0 -8.29,1.41 -11.51,3.8l1.5 1.5c2.83,-2.02 6.28,-3.21 10.01,-3.21 5.04,0 9.59,2.18 12.75,5.64l1.48 -1.48 0 0 2.25 -2.24c0.4,-0.41 0.4,-1.07 0,-1.48z"/>
  <path class="fil2" d="M46.6 38.01l-1.48 -1.48 0 0 -2.24 -2.24c-0.41,-0.41 -1.07,-0.41 -1.48,0 -0.41,0.41 -0.41,1.07 0,1.48l2.26 2.26c-2.98,3.41 -4.79,7.86 -4.79,12.73 0,4.88 1.81,9.33 4.79,12.74l-2.26 2.26c-0.41,0.41 -0.41,1.07 0,1.48 0.2,0.21 0.47,0.31 0.74,0.31 0.27,0 0.54,-0.1 0.74,-0.31l2.24 -2.24 0 0 1.48 -1.48c-3.46,-3.16 -5.63,-7.71 -5.63,-12.76 0,-5.04 2.17,-9.59 5.63,-12.75z"/>
  <path class="fil2" d="M73.83 39.26l-1.51 1.5c2.02,2.83 3.21,6.28 3.21,10 0,3.73 -1.19,7.18 -3.21,10.01l1.51 1.5c2.38,-3.22 3.79,-7.2 3.79,-11.51 0,-4.3 -1.41,-8.28 -3.79,-11.5z"/>
  <path class="fil2" d="M58.25 70.14c4.87,0 9.32,-1.81 12.73,-4.79l2.26 2.26c0.21,0.21 0.48,0.31 0.74,0.31 0.27,0 0.54,-0.1 0.75,-0.31 0.4,-0.41 0.4,-1.07 0,-1.48l-2.25 -2.24 0 0 -1.48 -1.48c-3.16,3.46 -7.71,5.64 -12.75,5.64 -3.73,0 -7.18,-1.19 -10.01,-3.21l-1.5 1.5c3.22,2.39 7.2,3.8 11.51,3.8z"/>
  <path class="fil3" d="M90.71 50.37l-5.24 0c0,0.13 0.01,0.26 0.01,0.39 0,14.26 -11.01,25.98 -24.97,27.13l0 2.1c14.55,-1.11 26.17,-12.89 27.01,-27.52l3.19 0c0.58,0 1.05,-0.47 1.05,-1.05 0,-0.58 -0.47,-1.05 -1.05,-1.05z"/>
  <path class="fil3" d="M85.36 48.28l2.1 0c-1.21,-14.27 -12.66,-25.65 -26.95,-26.74l0 2.1c13.14,1.08 23.66,11.53 24.85,24.64z"/>
  <path class="fil3" d="M58.25 23.53c0.05,0 0.11,0.01 0.16,0.01l0 -5.24c0,-0.58 -0.47,-1.05 -1.05,-1.05 -0.58,0 -1.04,0.47 -1.04,1.05l0 3.21c-14.45,0.95 -26.07,12.39 -27.28,26.77l2.1 0c1.26,-13.86 12.93,-24.75 27.11,-24.75z"/>
  <path class="fil2" d="M61.91 50.76c0,-2.02 -1.64,-3.66 -3.66,-3.66 -2.02,0 -3.67,1.64 -3.67,3.66 0,2.03 1.65,3.67 3.67,3.67 2.02,0 3.66,-1.64 3.66,-3.67zm-3.66 1.58c-0.87,0 -1.57,-0.71 -1.57,-1.58 0,-0.86 0.7,-1.57 1.57,-1.57 0.86,0 1.57,0.71 1.57,1.57 0,0.87 -0.71,1.58 -1.57,1.58z"/>
  <path class="fil3" d="M15.31 82.18c-0.58,0 -1.05,0.47 -1.05,1.05 0,0.58 0.47,1.05 1.05,1.05 0.58,0 1.05,-0.47 1.05,-1.05 0,-0.58 -0.47,-1.05 -1.05,-1.05z"/>
  <path class="fil3" d="M20.02 82.18l-1.57 0c-0.58,0 -1.05,0.47 -1.05,1.05 0,0.58 0.47,1.05 1.05,1.05l1.57 0c0.58,0 1.05,-0.47 1.05,-1.05 0,-0.58 -0.47,-1.05 -1.05,-1.05z"/>
  <path class="fil3" d="M98.05 82.18l-1.58 0c-0.57,0 -1.04,0.47 -1.04,1.05 0,0.58 0.47,1.05 1.04,1.05l1.58 0c0.57,0 1.04,-0.47 1.04,-1.05 0,-0.58 -0.47,-1.05 -1.04,-1.05z"/>
  <path class="fil3" d="M101.19 82.18c-0.58,0 -1.05,0.47 -1.05,1.05 0,0.58 0.47,1.05 1.05,1.05 0.58,0 1.04,-0.47 1.04,-1.05 0,-0.58 -0.46,-1.05 -1.04,-1.05z"/>
  <path class="fil2" d="M76.13 86.37l-4.35 0c-0.53,0 -0.96,0.47 -0.96,1.05 0,0.58 0.43,1.05 0.96,1.05l4.35 0c0.54,0 0.97,-0.47 0.97,-1.05 0,-0.58 -0.43,-1.05 -0.97,-1.05z"/>
  <path class="fil2" d="M44.71 86.37l-4.35 0c-0.53,0 -0.96,0.47 -0.96,1.05 0,0.58 0.43,1.05 0.96,1.05l4.35 0c0.54,0 0.97,-0.47 0.97,-1.05 0,-0.58 -0.43,-1.05 -0.97,-1.05z"/>
  <path class="fil2" d="M68.72 86.37l-20.95 0c-0.57,0 -1.04,0.47 -1.04,1.05 0,0.58 0.47,1.05 1.04,1.05l8.35 0 0 1.04 -4.16 0c-0.57,0 -1.04,0.47 -1.04,1.05 0,0.58 0.47,1.05 1.04,1.05l13.1 0c0.57,0 1.04,-0.47 1.04,-1.05 0,-0.58 -0.47,-1.05 -1.04,-1.05l-4.69 0 0 -1.04 8.35 0c0.58,0 1.05,-0.47 1.05,-1.05 0,-0.58 -0.47,-1.05 -1.05,-1.05z"/>
  <path class="fil3" d="M93.19 82.18l-34.78 0 0 -4.19c-0.05,0 -0.11,0 -0.16,0 -15.02,0 -27.23,-12.21 -27.23,-27.23 0,-0.13 0.01,-0.26 0.01,-0.39l-5.25 0c-0.58,0 -1.05,0.47 -1.05,1.05 0,0.58 0.47,1.05 1.05,1.05l3.2 0c0.84,14.74 12.63,26.59 27.34,27.55l0 2.16 -33.01 0c-0.66,0 -1.19,0.47 -1.19,1.05 0,0.58 0.53,1.05 1.19,1.05l69.88 0c0.66,0 1.19,-0.47 1.19,-1.05 0,-0.58 -0.53,-1.05 -1.19,-1.05z"/>
 </g>
</svg>
